<svg xmlns="http://www.w3.org/2000/svg" xmlns:xlink="http://www.w3.org/1999/xlink" viewBox="0 0 268.93 61.17"><defs><style>.a{fill:url(#a);}.b{fill:url(#b);}.c{fill:url(#c);}.d{fill:url(#d);}</style><linearGradient id="a" x1="-222.54" y1="383.83" x2="-221.55" y2="383.83" gradientTransform="matrix(92, 0, 0, -42.77, 20622, 16448.9)" gradientUnits="userSpaceOnUse"><stop offset="0" stop-color="#a26343"/><stop offset="0.49" stop-color="#d2996c"/><stop offset="1" stop-color="#a26343"/></linearGradient><linearGradient id="b" x1="-0.05" y1="385.86" x2="0.12" y2="385.51" gradientTransform="matrix(1, 0, 0, -57.17, 266.93, 22084.79)" gradientUnits="userSpaceOnUse"><stop offset="0" stop-color="#a26343"/><stop offset="1" stop-color="#d2996c"/></linearGradient><linearGradient id="c" x1="-206.24" y1="365.64" x2="-205.25" y2="365.64" gradientTransform="matrix(12, 0, 0, -12.68, 2590.03, 4669.7)" xlink:href="#a"/><linearGradient id="d" x1="-221.95" y1="64.02" x2="-221.68" y2="63.45" gradientTransform="matrix(88, 0, 0, -1, 19577, 95.55)" xlink:href="#b"/></defs><title>ornate-element</title><path class="a" d="M238.57,36.16c1.2,3.6-.08,8.28-4,9.59a6.1,6.1,0,0,1-7.78-3.55c-.78-2.34.25-5.28,2.7-6.09a3.34,3.34,0,0,1,4.21,2A2.61,2.61,0,0,1,232,41.38,2.19,2.19,0,0,1,229.36,40a2.41,2.41,0,0,1,.21-1.85,3,3,0,0,0-.89,3.37A4.12,4.12,0,0,0,234,43.94c2.87-1,3.55-4.6,2.7-7.15a7.05,7.05,0,0,0-8.77-4.41c-6.33,2.1-7.95,9.19-7.23,15.37h0a14.93,14.93,0,0,1,.09,2.36c-1.83.3-4.07-2.14-4.07-2.14a6.38,6.38,0,0,0,.43-4.06c-.08-.17-.16-.33-.24-.49a28.75,28.75,0,0,0-8.57.51,4.23,4.23,0,1,1-.35-1.37c1.64-.47,4.73-1.83,6.89-2.19-5.08-5.48-14.23-3.74-23.84-1.89l-2.76.52a7.83,7.83,0,0,0-2.93,2.19c-1.45,2.09-1.36,5.42-3,7.79-3.29,4.74-10.44,6.1-17.08,3.44a15.22,15.22,0,0,0,6.2-4.8c2.73-3.44,7.12-5.86,11.41-7.77-4.06.51-8,.62-11.32-.39a15.92,15.92,0,0,0-5.05-.92c-3,.13-6.16.08-8.93-1.14-3.1-1.37-4.25-3.28-5.46-6.33a21.07,21.07,0,0,0-3.85-5.91c-.37-.45-.75-.91-1.13-1.38a.31.31,0,0,1,.3-.5l1,.19a23.3,23.3,0,0,0,7.7.55,11.32,11.32,0,0,1,13,8.34c.92,3.2,3,4.93,4.9,5.25,4.33.72,9.77-.25,15.63-1.38a48.86,48.86,0,0,1-11.9-5.48c-7.66-5.06-10.17-13.3-6.31-19.76,1.95,3.23,4.92,5.73,11.33,10,3.77,2.51,3.27,7.32,5.92,10.56,1.33,1.63,3.13,3.36,5,3.92,4.56-.83,9.2-1.49,13.37-1.08-1.45-1.81-4.07-4.46-4.55-5a4.25,4.25,0,1,1,1-1c1.14,1.08,5.61,4.54,7.56,6.78a13.11,13.11,0,0,1,4.31,2.38h0a12.41,12.41,0,0,1,1,.9l.2.22c.26.28.53.56.77.88a14.35,14.35,0,0,1,1.4,2.16c.77-4.95,3.55-9.53,8.51-11.18a9,9,0,0,1,11.28,5.58" transform="translate(-0.07 -0.45)"/><rect class="b" x="264.93" width="4" height="61.17"/><polygon class="c" points="114.93 38.24 126.93 31.9 114.93 25.56 114.93 38.24"/><rect class="d" y="29.55" width="92" height="4"/></svg>