<svg xmlns="http://www.w3.org/2000/svg" xmlns:xlink="http://www.w3.org/1999/xlink" viewBox="0 0 162 64.68"><defs><style>.a{fill:url(#a);}.b{fill:url(#b);}.c{fill:url(#c);}</style><linearGradient id="a" x1="-273.65" y1="388.46" x2="-272.67" y2="388.46" gradientTransform="matrix(64, 0, 0, -64.68, 17563, 25157.6)" gradientUnits="userSpaceOnUse"><stop offset="0" stop-color="#e3a474"/><stop offset="0.22" stop-color="#a26343"/><stop offset="0.46" stop-color="#e7a575"/><stop offset="0.68" stop-color="#daa06b"/><stop offset="0.85" stop-color="#a26343"/><stop offset="1" stop-color="#e3a474"/></linearGradient><linearGradient id="b" x1="-266.09" y1="68" x2="-265.74" y2="68" gradientTransform="matrix(24, 0, 0, -1, 6395, 100)" gradientUnits="userSpaceOnUse"><stop offset="0" stop-color="#a26343"/><stop offset="0.49" stop-color="#d2996c"/><stop offset="1" stop-color="#a26343"/></linearGradient><linearGradient id="c" x1="-266.09" x2="-265.74" gradientTransform="matrix(24, 0, 0, -1, 6531, 100)" xlink:href="#b"/></defs><title>p-emblem</title><path class="a" d="M81,.5A32.34,32.34,0,0,0,49,28.18h.37A4.66,4.66,0,0,1,54,32.84h0a4.66,4.66,0,0,1-4.66,4.66H49A32.34,32.34,0,0,0,81,65.18h0A32.34,32.34,0,0,0,113,37.5h0a4.66,4.66,0,0,1-4.66-4.66h0A4.66,4.66,0,0,1,113,28.18h0A32.34,32.34,0,0,0,81,.5ZM60.48,56.37A31.24,31.24,0,0,1,50.3,38.54h0a5.78,5.78,0,0,0,4.84-5.7h0a5.78,5.78,0,0,0-4.84-5.7h0A31.23,31.23,0,0,1,60.48,9.31h0A31.19,31.19,0,0,1,81,1.62h0a31.19,31.19,0,0,1,20.52,7.7h0A31.23,31.23,0,0,1,111.71,27.2h0a5.78,5.78,0,0,0-4.51,5.63h0a5.78,5.78,0,0,0,4.51,5.63h0a31.23,31.23,0,0,1-10.19,17.9h0A31.19,31.19,0,0,1,81,64.06h0a31.2,31.2,0,0,1-20.52-7.7ZM80.4,4.27a3.77,3.77,0,0,0-1.64,5h0a4.42,4.42,0,0,0,2.41,2.06h0c.16.06.31.11.47.15h0a10.63,10.63,0,0,1-3.1.54h0A2.84,2.84,0,0,1,76.09,10h0A4.62,4.62,0,0,0,70,7.43h0a9.33,9.33,0,0,1-3.27.42H66.3a.14.14,0,0,0-.12.09h0a.15.15,0,0,0,0,.16h0l.57.52h0a9.16,9.16,0,0,1,2,2.33h0a4.1,4.1,0,0,0,2.76,2.38h0a8,8,0,0,0,3.83-.26h0a6.35,6.35,0,0,1,2.19,0h0c3,.33,5.72-1.12,8.42-2.28h0c2.91-1.25,6.74-3.18,9.75-1.15h0a6.33,6.33,0,0,1-.59.56h0c-.6.45-.89.34-1.52,0h0a1.92,1.92,0,0,0-2.52.86h0a1.9,1.9,0,0,0,1,2.46h0a1.92,1.92,0,0,0,2.43-1.09h0A3.76,3.76,0,0,1,95,11.3h0a1.31,1.31,0,0,1,1.27-.39h0a1.65,1.65,0,0,1,1,.55h0c.85,1,.83,2.49.85,3.69h0a4.13,4.13,0,0,0,.2,1.72h0c.09.21.43.88.72.86h0c.43,0,.67-1.82.67-2.19h0a1.11,1.11,0,0,1-.37-.6h0c-.41-1.55-.46-3.33-1.38-4.74h0a6.13,6.13,0,0,0-4.81-2.69h0a12.27,12.27,0,0,0-4.45,1h0c-.93.34-1.84.76-2.75,1.16h0c-2,.9-4.91,1.62-6.15-.88h0a2.7,2.7,0,0,1-.1-2.27h0a2.62,2.62,0,0,1,3.05-1.64h0a2,2,0,0,1,1.08.86h0a1.43,1.43,0,0,1,.11,1.31h0a1.42,1.42,0,0,1-.94.83h0a1,1,0,0,0,.38-.45h0a.92.92,0,0,0,0-.76h0a1.05,1.05,0,0,0-.6-.53h0a1.47,1.47,0,0,0-1,0h0a1.24,1.24,0,0,0-.68.66h0A1.34,1.34,0,0,0,81.1,8h0a1.67,1.67,0,0,0,.93.79h0A2.43,2.43,0,0,0,85,7.45h0a2.31,2.31,0,0,0-.15-2.06h0A3.14,3.14,0,0,0,82,3.86h0a3.46,3.46,0,0,0-1.64.41ZM65.46,11.19c-6.69,3.44-10.67,11.33-10.14,15.65h0a2.73,2.73,0,0,0,.08.43h.09c.46-1,3.11-2.85,3.43-4.17h0c.87-3.57,1.33-7.22,3.38-7.16h0a16.65,16.65,0,0,0-.53,1.89h0A7,7,0,0,0,62,21.65h0c.88,2.77,2.77,5,.77,7.73h0c-1.13,1.54-3.33,1.84-4,3.8h0c-1.14,3.33-1.91,4.93-3.12,6.15h0c3.34,1,6.72-1,8.07-5h0a22.07,22.07,0,0,0,1-5.9h0c1.2,2.49,2.28,4.81,2.47,6.81h0A3,3,0,0,1,65.49,38h0a5.11,5.11,0,0,0-2.17,6.73h0A10.72,10.72,0,0,1,64,48.23h0l0,.47a.15.15,0,0,0,.1.13h0a.14.14,0,0,0,.15,0h0l.48-.65h0a9.42,9.42,0,0,1,2.18-2.37h0a4.35,4.35,0,0,0,2.18-3.13h0a9.2,9.2,0,0,0-.55-4.11h0a7.31,7.31,0,0,1-.19-2.35h0c.11-3.25-1.56-6.08-2.92-8.9h0c-1.91-4-3.62-7.71-1.83-10.5h0a31.2,31.2,0,0,0,1.8,2.83h0a1.86,1.86,0,0,0-.69,1.13h0A2,2,0,0,0,66.28,23h0a1.9,1.9,0,0,0,2.25-1.51h0A2,2,0,0,0,67,19.23h0a1.91,1.91,0,0,0-1,.07h0c-.38-.73-.8-1.44-1.14-2.19h0A5.24,5.24,0,0,1,64.24,15h0c0-1.31,1.8-2.5,2.87-2.93h0a1.49,1.49,0,0,0-.65-1.33h0a3.23,3.23,0,0,0-1,.4ZM84,14.45a20.45,20.45,0,0,0-5.5,1.11h0a14.48,14.48,0,0,0-3.93,2.12h0a9.75,9.75,0,0,0-2.48,2.78h0A8.88,8.88,0,0,0,71,23.51h0a5.59,5.59,0,0,0,.17,2.74h0A3.85,3.85,0,0,0,72.36,28h0a3.54,3.54,0,0,0,1.78.75h0a3.76,3.76,0,0,0,1.92-.24h0l2.25-6-1,.08a3,3,0,0,1-.48.79h0a.84.84,0,0,1-.73.31h0a.53.53,0,0,1-.4-.18h0a.9.9,0,0,1-.2-.38h0a1.62,1.62,0,0,1,0-.47h0a1.81,1.81,0,0,1,.08-.47h0a4.59,4.59,0,0,1,1-1.68h0a7.91,7.91,0,0,1,1.65-1.35h0a9.27,9.27,0,0,1,2-.93h0a10.07,10.07,0,0,1,2.1-.46h0L72.58,43.34q-.7,1.84-1.27,3.07h0a12.45,12.45,0,0,1-1.15,2h0a4,4,0,0,1-1.22,1.15h0a3.51,3.51,0,0,1-1.47.43h0l-.41,1a12.74,12.74,0,0,0,2.65-.44h0a9.08,9.08,0,0,0,1.87-.79h0a9.89,9.89,0,0,0,1.53-1.07h0q.71-.61,1.64-1.33h0a6.6,6.6,0,0,1,1.16-.77h0A4.84,4.84,0,0,1,77,46.2h0a9.5,9.5,0,0,1,1.22-.2h0l1.4-.12h0l.36-.95-.82.06q-.58,0-.74-.67h0a4.81,4.81,0,0,1,.3-2.24h0l2.48-7.74a19.57,19.57,0,0,0,5.89-1.2h0a14.29,14.29,0,0,0,4.44-2.63h0a11,11,0,0,0,2.78-3.77h0a10.48,10.48,0,0,0,.9-4.57h0a9.07,9.07,0,0,0-.65-3.2h0a6.33,6.33,0,0,0-1.94-2.58h0a9.05,9.05,0,0,0-3.45-1.62h0a13.64,13.64,0,0,0-3.41-.38h0q-.83,0-1.75.07Zm2.62,3.33a4.26,4.26,0,0,1,2.11.76h0A4.33,4.33,0,0,1,90,20h0a5.1,5.1,0,0,1,.56,1.8h0a5.8,5.8,0,0,1,0,1.73h0a9.64,9.64,0,0,1-.83,2.61h0a8,8,0,0,1-1.62,2.25h0a9,9,0,0,1-2.48,1.69h0a11.62,11.62,0,0,1-3.38,1h0Zm15-2.59a.14.14,0,0,0-.11.12h0l-.07.46a10.43,10.43,0,0,1-.93,3.38h0a5,5,0,0,0,1.66,6.78h0a3,3,0,0,1,1.55,2.85h0c-.64,3.69-3.23,6.79-5,10.18h0c-.15-2.4-1-4.78-3.73-5.64h0a3.94,3.94,0,0,0-2.75.07h0a3.08,3.08,0,0,0-1.76,1.92h0a3.26,3.26,0,0,0,.12,2.2h0a3.21,3.21,0,0,0,.17.34h0a2.79,2.79,0,0,0,1.5,1.26h0a2.8,2.8,0,0,0,1.9,0h0a2,2,0,0,0,1.24-1.27h0a2,2,0,0,0-1.21-2.45h0a1.49,1.49,0,0,0-1.06,0h0a1.15,1.15,0,0,0-.68.72h0a1,1,0,0,0,.09.8h0a1.26,1.26,0,0,0,.65.56h0a.94.94,0,0,0,.69,0h0A.79.79,0,0,0,94.4,37h0a.83.83,0,0,0,0-.49h0a1.16,1.16,0,0,1,.17,1h0a1.24,1.24,0,0,1-.79.8h0a1.82,1.82,0,0,1-1.2,0h0a1.81,1.81,0,0,1-1.1-1.14h0a2.52,2.52,0,0,1,0-1.56h0a2.32,2.32,0,0,1,1.32-1.43h0a3.32,3.32,0,0,1,3.69,1h0a4.88,4.88,0,0,1,1,3.26h0A7.9,7.9,0,0,1,97,41.73h0a6.57,6.57,0,0,0,6-1.06h0a6.33,6.33,0,0,0,2.77-5.24h0a2.63,2.63,0,0,0,0-.36h0l-.07,0h0c-.42.52-.55,1.11-1.21,1.57h0a34.34,34.34,0,0,0-5.08,3.47h0c.55-1.16,1.24-2.35,1.95-3.57h0C103,33.82,104.84,31.16,105,28h0a7.12,7.12,0,0,1,.37-2.3h0a9,9,0,0,0,.86-4h0a4.28,4.28,0,0,0-1.94-3.24h0a9.31,9.31,0,0,1-2-2.49h0l-.43-.68h0a.14.14,0,0,0-.12-.06h0Zm-17.86,31c0,1.33.95,2.55,1,3.73h0a3.6,3.6,0,0,1-.53,1.61h0l-.91.94h0c-3.16,3.29-6.18,6.41-9.59,5.74h0a31.06,31.06,0,0,0,2-2.68h0a2,2,0,0,0,1.34.24h0a2,2,0,0,0,1.58-2.26h0A1.94,1.94,0,0,0,76.44,52h0a2,2,0,0,0-1.58,2.26h0a1.89,1.89,0,0,0,.43.89h0a10.55,10.55,0,0,1-2.72,2.26h0a4.24,4.24,0,0,1-.49.18h0a4.37,4.37,0,0,1-2.7-.07h0a10.35,10.35,0,0,1-5.7-4.58h0c-1.48-2.67-1.8-4-2.28-8.74h0a.25.25,0,0,0,0-.08h0A12,12,0,0,0,63,54.23h0A12.94,12.94,0,0,0,73.89,59.5h0a10.18,10.18,0,0,0,1.87-.17h0a5.51,5.51,0,0,0,.79-.16h0c1.35.31,4,.4,4.71.49h0a1.89,1.89,0,0,0,.24,1h0a2,2,0,0,0,2.67.72h0a1.94,1.94,0,0,0,.75-2.64h0A2,2,0,0,0,82.25,58h0a2,2,0,0,0-.88,1h0c-.32-.07-2-.35-3.07-.64h0a23.53,23.53,0,0,0,4.8-4h0a5.44,5.44,0,0,1,3,.1h0c1.88.5,3,2.43,5.1,2.35h0c3.6-.13,5.4,0,7,.68h0c-.27-3.46-3.45-5.87-7.74-5.69h0a23.18,23.18,0,0,0-6,1.16h0c1.93-2,3.74-3.84,5.58-4.74h0a3.17,3.17,0,0,1,3.29.64h0a5.33,5.33,0,0,0,7.22-.4h0a11,11,0,0,1,3.08-1.87h0l.44-.2a.15.15,0,0,0,.08-.14h0a.14.14,0,0,0-.1-.13h0l-.8-.21h0a9.78,9.78,0,0,1-3.06-1.17h0a4.55,4.55,0,0,0-3.79-.89h0a9.47,9.47,0,0,0-3.71,2h0a7.58,7.58,0,0,1-2.17,1h0a13.16,13.16,0,0,0-4.42,2.91h0a13.83,13.83,0,0,0,2.25-6h0a7,7,0,0,1,1.07-3.47h0c-3.25.8-5.6,3.24-5.58,5.9Z" transform="translate(0 -0.5)"/><rect class="b" y="31" width="26" height="2"/><rect class="c" x="136" y="31" width="26" height="2"/></svg>