<svg xmlns="http://www.w3.org/2000/svg" xmlns:xlink="http://www.w3.org/1999/xlink" viewBox="0 0 174.5 31.72"><defs><style>.a{fill:url(#a);}.b{fill:url(#b);}.c{fill:url(#c);}</style><linearGradient id="a" x1="-260.34" y1="34" x2="-259.99" y2="34" gradientTransform="matrix(24, 0, 0, -1, 6257, 50)" gradientUnits="userSpaceOnUse"><stop offset="0" stop-color="#a26343"/><stop offset="0.49" stop-color="#d2996c"/><stop offset="1" stop-color="#a26343"/></linearGradient><linearGradient id="b" x1="-260.34" x2="-259.99" gradientTransform="matrix(24, 0, 0, -1, 6405.5, 51)" xlink:href="#a"/><linearGradient id="c" x1="-269.16" y1="365.69" x2="-268.17" y2="365.69" gradientTransform="matrix(96, 0, 0, -31.72, 25879.75, 11616.35)" xlink:href="#a"/></defs><title>pb-horizontal-logo</title><rect class="a" y="15" width="26" height="2"/><rect class="b" x="148.5" y="16" width="26" height="2"/><path class="c" d="M95.71,17.67a1,1,0,0,1-.81.22.7.7,0,0,1-.5-.61,2.67,2.67,0,0,1,.3-1.46l1-2.28a4.1,4.1,0,0,1,.43-.79,2.82,2.82,0,0,1,.5-.55,1.57,1.57,0,0,1,.52-.3.8.8,0,0,1,.25,0,.71.71,0,0,1,.24,0,.61.61,0,0,1,.38.4,1.81,1.81,0,0,1,.07.66,4,4,0,0,1-.15.84c-.08.28-.18.6-.3,1a9,9,0,0,1-.47,1.06,7.15,7.15,0,0,1-.66,1.06,4,4,0,0,1-.77.78Zm11.24-6.95H107a.53.53,0,0,1,.4.2,1.05,1.05,0,0,1,.09.84c-.29,1.53-1.41,4.25-3.18,5l-.17,0a1.16,1.16,0,0,1-.3,0,.61.61,0,0,1-.4-.35,1.45,1.45,0,0,1-.12-.57,3,3,0,0,1,.07-.71,5.13,5.13,0,0,1,.21-.73,9.28,9.28,0,0,1,.57-1.18,8.8,8.8,0,0,1,.79-1.16,5.77,5.77,0,0,1,.92-.92,1.78,1.78,0,0,1,1-.47Zm28.78,5.74a5.89,5.89,0,0,0-.58-2.07A5.59,5.59,0,0,0,134,12.8a5.25,5.25,0,0,0-1.61-1,5.05,5.05,0,0,0-1.89-.36,3.86,3.86,0,0,0-1.31.21,3.4,3.4,0,0,0-1,.52,2.55,2.55,0,0,0-.6.67,2.1,2.1,0,0,0-.25.6v0l1.3,3,0,0H129l0-.11a2.68,2.68,0,0,1-.16-.78,2.14,2.14,0,0,1,.15-.94,1.6,1.6,0,0,1,.59-.71,2,2,0,0,1,1-.32h.06a2.49,2.49,0,0,1,1,.19,3.21,3.21,0,0,1,.94.62,3.63,3.63,0,0,1,.72,1,3.74,3.74,0,0,1,.39,1.21,4.71,4.71,0,0,1,0,1.33A3,3,0,0,1,133.3,19a2.89,2.89,0,0,1-3.72.92c-1.92-.85-3-3.44-3.71-5.34l-.16-.42a2.9,2.9,0,0,0-1.23-1.78l-.23-.11.25,0a7.49,7.49,0,0,0,1.58-.62,6.28,6.28,0,0,0,1.33-.94,4.69,4.69,0,0,0,1-1.28,2.53,2.53,0,0,0,.29-1.32V8l-3,.25h-.05l-.16.42h.11a.45.45,0,0,1,.4.18,1,1,0,0,1,.14.38,1,1,0,0,1-.06.46,2,2,0,0,1-.33.6,3.17,3.17,0,0,1-.65.62,3.6,3.6,0,0,1-1,.49,2.81,2.81,0,0,1-.85.12H123L127.83.14l.06-.14-4.23.7h0l-.18.49h.13a1.32,1.32,0,0,1,.39,0,.48.48,0,0,1,.33.23.57.57,0,0,1,.05.35,1.53,1.53,0,0,1-.09.34l-1.63,4.33c-1.18,3.14-1.54,4.09-1.68,4.33l0,.07,0,0a16.3,16.3,0,0,1-3.13,3.56,5.09,5.09,0,0,1-.89.68,5.47,5.47,0,0,1-3,1,2.08,2.08,0,0,1-.37,0,1.28,1.28,0,0,1-.73-.5,1.68,1.68,0,0,1-.26-1,6.2,6.2,0,0,1,1.78-4.1,1.75,1.75,0,0,1,1-.54.68.68,0,0,1,.72.26,1,1,0,0,1-.1,1.08,1.38,1.38,0,0,1-.68.51h0l-.18.59,2.49-.82h0l0,0a2,2,0,0,0,.22-.49,2.55,2.55,0,0,0,.12-.69,1.6,1.6,0,0,0-.52-1.44c-1-.82-2.64-.45-3.49-.09-2.37,1-3.07,2.94-3.88,5.22l-.07.2a3.78,3.78,0,0,1-1.2,1.89.79.79,0,0,1-.94.14.67.67,0,0,1-.1-.83c.16-.4.25-.63.31-.78l.85-2a3.28,3.28,0,0,0,.27-1.85,1.69,1.69,0,0,0-1.82-1.53h-.09a5,5,0,0,0-1.56.24,7.18,7.18,0,0,0-1.4.7,7,7,0,0,1-1.43.71,3.52,3.52,0,0,1-2.14,0,2.36,2.36,0,0,1-.88-.44l-.11-.09a1.74,1.74,0,0,0-.61-.41,2,2,0,0,0-.61-.09,2,2,0,0,0-.57.1,2.55,2.55,0,0,0-.49.23l-.26.17-.39.26,3.57-8.5.06-.14-4.25.7h0L96,3.29h.13a1.39,1.39,0,0,1,.39,0,.48.48,0,0,1,.33.23.57.57,0,0,1,.05.35,1.49,1.49,0,0,1-.09.34L92.68,15.17a5.74,5.74,0,0,0-.31,1.33,4.07,4.07,0,0,0,0,1.09,2.9,2.9,0,0,0,.27.83,2,2,0,0,0,.42.57,1.78,1.78,0,0,0,.77.43,4,4,0,0,0,.95.11h0A4.07,4.07,0,0,0,96.77,19a5.94,5.94,0,0,0,1.47-1.19,7.16,7.16,0,0,0,1-1.46A12.94,12.94,0,0,0,99.89,15a9.77,9.77,0,0,0,.43-1.53,6.44,6.44,0,0,0,.09-.71v-.09h.09a5.43,5.43,0,0,0,1.37.08H102l-.07.13a7.09,7.09,0,0,0-.37.79,8,8,0,0,0-.5,1.85,4.87,4.87,0,0,0,0,1.6,2.51,2.51,0,0,0,.53,1.16,1.63,1.63,0,0,0,1,.56,2.53,2.53,0,0,0,1.3-.06,3.27,3.27,0,0,0,1-.52,3.1,3.1,0,0,0,.63-.66l.29-.45.26-.42-.05.39a1.28,1.28,0,0,0,.22,1.06,1.25,1.25,0,0,0,.95.37c1.36,0,2.24-.81,3.15-2l.08-.11.06.12a2.71,2.71,0,0,0,.41.62,2.87,2.87,0,0,0,1,.68,3.67,3.67,0,0,0,1.65.25,6,6,0,0,0,2.77-.84,11.51,11.51,0,0,0,3-2.35l.29-.31-1,2.78,2.09-.16h.05l1.71-4.06.12,0a1.11,1.11,0,0,1,.22.09,2.59,2.59,0,0,1,1,1.53l.11.3a11.94,11.94,0,0,0,3.69,5.42,8.44,8.44,0,0,0,.7.47,5.22,5.22,0,0,0,.87.41,5.78,5.78,0,0,0,1.07.27,6.12,6.12,0,0,0,.88.06h.4a4.92,4.92,0,0,0,1.81-.47,4.38,4.38,0,0,0,1.43-1.09,4.67,4.67,0,0,0,.89-1.62,5.24,5.24,0,0,0,.2-2.06ZM51.47,7a2.59,2.59,0,0,1,2.12,1.4,3.12,3.12,0,0,1,.35,1.11,3.5,3.5,0,0,1,0,1.07,6,6,0,0,1-.51,1.59,4.92,4.92,0,0,1-1,1.38,5.57,5.57,0,0,1-1.52,1,7.2,7.2,0,0,1-2.07.59l-.13,0L51.4,7ZM44.21,24.9a4,4,0,0,1,.71-.48,2.93,2.93,0,0,1,.7-.26,6.11,6.11,0,0,1,.74-.12l.74-.07h.05l.15-.4-.37,0c-.15,0-.43,0-.53-.47a2.92,2.92,0,0,1,.18-1.39L48.12,17h.06a11.8,11.8,0,0,0,3.53-.72,8.6,8.6,0,0,0,2.66-1.57A6.62,6.62,0,0,0,56,12.45a6.28,6.28,0,0,0,.53-2.73,5.44,5.44,0,0,0-.39-1.91A3.75,3.75,0,0,0,55,6.3a5.41,5.41,0,0,0-2-1,9.56,9.56,0,0,0-3.09-.19,12.21,12.21,0,0,0-3.3.67,8.67,8.67,0,0,0-2.35,1.27,5.8,5.8,0,0,0-1.48,1.65,5.33,5.33,0,0,0-.67,1.82,3.29,3.29,0,0,0,.1,1.61,2.26,2.26,0,0,0,.69,1,2.06,2.06,0,0,0,1,.44,2.19,2.19,0,0,0,1-.11h0L46.3,10l-.42,0,0,0a1.8,1.8,0,0,1-.26.41.6.6,0,0,1-.47.22h0a.41.41,0,0,1-.3-.14.59.59,0,0,1-.14-.26,1.06,1.06,0,0,1,0-.31,1.13,1.13,0,0,1,.05-.3,2.84,2.84,0,0,1,.64-1,4.9,4.9,0,0,1,1-.83,5.73,5.73,0,0,1,1.22-.57A6.19,6.19,0,0,1,48.83,7L49,7,43,22.54c-.28.73-.54,1.36-.77,1.86a7.49,7.49,0,0,1-.7,1.24,2.53,2.53,0,0,1-.76.72,2.15,2.15,0,0,1-.82.26h0l-.18.44h.14a7.18,7.18,0,0,0,1.31-.24,5.48,5.48,0,0,0,1.11-.47,6,6,0,0,0,.91-.64c.28-.24.62-.51,1-.8Zm13.41-8.15a6.49,6.49,0,0,1,.31-.68,4.8,4.8,0,0,1,.9-1.25,1.94,1.94,0,0,1,1-.57H60a.82.82,0,0,1,.3.05.54.54,0,0,1,.26.22.56.56,0,0,1,.09.28,1.7,1.7,0,0,1,0,.24,1.26,1.26,0,0,1-.27.6,3,3,0,0,1-.56.55,4.75,4.75,0,0,1-.68.43l-.13.06-.11,0-.28.11,0,0a3.19,3.19,0,0,1-.92.19h-.13l.13-.31ZM125,19.87l0,0h-.05a19.11,19.11,0,0,1-3,.46l-33.55,2.6,4.6-12,0-.12-2.38.18h-.05L89,15.6a3.22,3.22,0,0,1-.36.69,3.55,3.55,0,0,1-.54.63,2,2,0,0,1-.65.4.78.78,0,0,1-.65,0,.56.56,0,0,1-.29-.5,1.41,1.41,0,0,1,.13-.74c.08-.16.2-.38.35-.65l.47-.85c.17-.31.32-.62.47-.94a6.35,6.35,0,0,0,.34-.91,3.83,3.83,0,0,0,.24-1.2c0-.16,0-.26,0-.33v-.08l-3.11.24H85.3l-.13.4h.11c.4,0,.64.11.73.32a1.41,1.41,0,0,1-.21,1.08c-.14.31-.31.65-.5,1s-.37.71-.52,1-.3.7-.41,1a5.65,5.65,0,0,1-1.43,1.53l-.08.06c-.41.31-1.27,1-1.74.74a.43.43,0,0,1-.22-.29,1.4,1.4,0,0,1,0-.58,3.58,3.58,0,0,1,.21-.68c.09-.22.2-.46.34-.73l.43-.86c.15-.31.31-.65.5-1.06a3,3,0,0,0,.26-2,1.3,1.3,0,0,0-.93-1,1.83,1.83,0,0,0-.69,0,3.06,3.06,0,0,0-.76.22,4.06,4.06,0,0,0-.74.42,3.61,3.61,0,0,0-.65.59,4.32,4.32,0,0,0-.33.42c-.08.12-.17.26-.26.43l0,.07-.08,0s-.07-.07-.06-.16a4,4,0,0,0,.07-.45,3.18,3.18,0,0,0,0-.51,2.31,2.31,0,0,0-.07-.47.89.89,0,0,0-.1-.24l0-.05-2.72.81h0l-.18.48.14,0a1.19,1.19,0,0,1,.37,0,.43.43,0,0,1,.34.21.6.6,0,0,1,0,.37,2.06,2.06,0,0,1-.11.39c-.1.27-.2.54-.3.81a10.93,10.93,0,0,1-1.1,2.41A6.82,6.82,0,0,1,73,18.59l-.1.08a2.52,2.52,0,0,1-1.47.74h-.12a.61.61,0,0,1-.29-.08.56.56,0,0,1-.24-.43,2.6,2.6,0,0,1,.25-1.11c.09-.22.2-.46.33-.73l.43-.86c.15-.31.32-.65.5-1.06a3,3,0,0,0,.26-2,1.3,1.3,0,0,0-.93-1,2,2,0,0,0-.69,0,3,3,0,0,0-.76.22,3.94,3.94,0,0,0-.74.42,3.58,3.58,0,0,0-.65.59,4.35,4.35,0,0,0-.33.42c-.08.12-.17.26-.26.43l0,.07-.08,0c-.05,0-.07-.07-.06-.16a4.23,4.23,0,0,0,.07-.45,3.17,3.17,0,0,0,0-.51,2.28,2.28,0,0,0-.07-.47,1,1,0,0,0-.1-.24l0-.05-2.72.81h0l-.18.48.14,0a1.61,1.61,0,0,1,.37,0,.44.44,0,0,1,.34.21.61.61,0,0,1,0,.37,1.87,1.87,0,0,1-.11.39l-.67,1.71-.07.07A17.25,17.25,0,0,1,60.34,20a3.2,3.2,0,0,1-2.47.35,1.4,1.4,0,0,1-.81-1.46,4.17,4.17,0,0,1,.06-.69v-.07h.46c2.1,0,4.52-1.24,4.87-3.54a1.34,1.34,0,0,0-.32-1.15,2.53,2.53,0,0,0-1.83-.67H60.2A5.5,5.5,0,0,0,56.05,15a6.8,6.8,0,0,0-1,1.84,7.69,7.69,0,0,0-.41,1.67,4.17,4.17,0,0,0,.15,1.76,2.91,2.91,0,0,0,.75,1.26l.38.31a2.22,2.22,0,0,0,.52.3,3.23,3.23,0,0,0,.77.19,5,5,0,0,0,1.13,0l.17,0h0l.23,0h0l.08,0A6.12,6.12,0,0,0,60,21.94a11,11,0,0,0,3.72-2.41l.26-.25-.91,2.39,2.13-.16h0l1.69-4a7.8,7.8,0,0,1,.69-1.25,6.62,6.62,0,0,1,.78-1,3.12,3.12,0,0,1,.74-.58.63.63,0,0,1,.57-.09.47.47,0,0,1,.2.47,2.12,2.12,0,0,1-.16.59c-.08.18-.18.38-.3.6l-.38.71c-.13.25-.26.52-.39.8a5.41,5.41,0,0,0-.31.87,3,3,0,0,0,0,2,1.37,1.37,0,0,0,1.09.86,2.59,2.59,0,0,0,.44,0,6.43,6.43,0,0,0,3.32-1.39l.22-.15-.34.89,2.13-.16h0l1.68-4a8,8,0,0,1,.69-1.25,6.59,6.59,0,0,1,.78-1,3.26,3.26,0,0,1,.74-.58.62.62,0,0,1,.57-.09.47.47,0,0,1,.2.47,2.15,2.15,0,0,1-.16.59c-.08.18-.18.38-.3.6l-.38.71c-.13.25-.26.52-.39.8a5.47,5.47,0,0,0-.31.86,3,3,0,0,0,0,2,1.59,1.59,0,0,0,1.84.86,10.72,10.72,0,0,0,4-2.21l.08-.06,0,.09,0,.09a1.57,1.57,0,0,0,.46.53,1.59,1.59,0,0,0,.63.28,1.84,1.84,0,0,0,.71,0,3,3,0,0,0,.66-.19,2.45,2.45,0,0,0,.56-.33l.22-.17-.09.27c-.22.64-1,2.87-1.45,4l0,0-38,3c-2.35.18-5,.72-5.07,3.29v.2l.14-.14a3.51,3.51,0,0,1,2.33-.8l39.72-3.09-.39,1c-.19.51-.38,1-.56,1.44a6.55,6.55,0,0,1-.62,1.19,3.42,3.42,0,0,1-.81.86,2.42,2.42,0,0,1-1.13.43,1.17,1.17,0,0,1-.72-.09,1.09,1.09,0,0,1-.43-.4,1.46,1.46,0,0,1-.19-.53,1.53,1.53,0,0,1,0-.5,2.33,2.33,0,0,1,.5-1l0,0,.14-.15-.21,0-1.61.13h0l0,0a2.13,2.13,0,0,0-.17.24,2.07,2.07,0,0,0-.2.43,3,3,0,0,0-.14.57,2.66,2.66,0,0,0,0,.7,2.09,2.09,0,0,0,.68,1.27,2.51,2.51,0,0,0,.74.45,2.74,2.74,0,0,0,1,.19h.1a4.6,4.6,0,0,0,2.15-.51,5.81,5.81,0,0,0,1.79-1.44h0a9,9,0,0,0,1-1.51c.3-.56.59-1.18.87-1.85l.42-1.1L117,23c4.17-.32,7.11-1,9-2l.11-.06-.09-.08a9.78,9.78,0,0,1-1-1Z" transform="translate(-0.5)"/></svg>