<?xml version="1.0" encoding="UTF-8"?>
<svg width="53px" height="54px" viewBox="0 0 53 54" version="1.1" xmlns="http://www.w3.org/2000/svg" xmlns:xlink="http://www.w3.org/1999/xlink">
    <!-- Generator: Sketch 46.2 (44496) - http://www.bohemiancoding.com/sketch -->
    <title>Shape</title>
    <desc>Created with Sketch.</desc>
    <defs>
        <linearGradient x1="0.988885055%" y1="50.7600307%" x2="98.8870721%" y2="50.7600307%" id="linearGradient-1">
            <stop stop-color="#E3A474" offset="0%"></stop>
            <stop stop-color="#A26343" offset="22.4091199%"></stop>
            <stop stop-color="#E7A575" offset="45.9442761%"></stop>
            <stop stop-color="#DAA06B" offset="67.6957111%"></stop>
            <stop stop-color="#A26343" offset="84.7775829%"></stop>
            <stop stop-color="#E3A474" offset="100%"></stop>
        </linearGradient>
    </defs>
    <g id="FINAL" stroke="none" stroke-width="1" fill="none" fill-rule="evenodd">
        <g id="HOME---FINAL" transform="translate(-49.000000, -40.000000)" fill-rule="nonzero" fill="url(#linearGradient-1)">
            <g id="NAVIGATION" transform="translate(48.000000, 39.000000)">
                <g id="P">
                    <path d="M22.5302077,39.8963913 C22.8557271,39.6235383 23.1812464,39.4052559 23.4525125,39.2415441 C23.7237787,39.0778323 24.049298,38.9686911 24.3748174,38.9141205 C24.7003367,38.8595499 25.025856,38.8049793 25.3513754,38.7504087 C25.6768947,38.695838 26.0566673,38.695838 26.4906931,38.6412674 L26.7619592,37.877279 L26.1109205,37.9318496 C25.7854012,37.9318496 25.6226415,37.7681378 25.5141351,37.3861436 C25.4056286,37.0041494 25.5141351,36.4038728 25.731148,35.5853137 L27.7385172,29.3096945 C29.5288736,29.2005533 31.1022171,28.8731296 32.512801,28.3274236 C33.9233848,27.7817176 35.1169557,27.0722998 36.0935138,26.1991701 C37.0700718,25.3260405 37.8296169,24.289199 38.3178959,23.1432164 C38.806175,21.9972337 39.0774411,20.7421099 39.0231879,19.4324154 C39.0231879,18.5047152 38.806175,17.6315856 38.4806556,16.8130265 C38.1551363,15.9944675 37.612604,15.2850497 36.9073121,14.684773 C36.2020202,14.0844964 35.2797154,13.6479316 34.1403977,13.3750786 C33.00108,13.1022256 31.5904962,12.9930844 29.9628994,13.1022256 C28.2810495,13.2113668 26.7619592,13.5387904 25.5141351,14.0299258 C24.2663109,14.5210612 23.1812464,15.0667673 22.3131948,15.7761851 C21.4451433,16.4310323 20.7941046,17.1950207 20.3058256,18.0135798 C19.8175465,18.8321388 19.5462804,19.6506978 19.3835207,20.5238275 C19.2750143,21.3969571 19.2750143,22.1609456 19.5462804,22.7612222 C19.7632933,23.3614988 20.0888127,23.8526342 20.5228384,24.1800578 C20.9568642,24.5074815 21.4451433,24.7257639 21.9876755,24.7803345 C22.5302077,24.8349051 23.0184868,24.7803345 23.561019,24.5620521 L25.4056286,19.7052685 L24.5918303,19.7598391 C24.4833238,20.0326921 24.3748174,20.2509745 24.2120577,20.4146863 C24.049298,20.5783981 23.8865383,20.6875393 23.6152722,20.6875393 C23.5067658,20.6875393 23.3982593,20.6329687 23.2897529,20.5238275 C23.2354997,20.4146863 23.1812464,20.3055451 23.1269932,20.1964039 C23.07274,20.0872627 23.07274,19.9235509 23.07274,19.8144097 C23.07274,19.7052685 23.1269932,19.5415566 23.1269932,19.4324154 C23.2897529,18.94128 23.561019,18.5047152 23.9407916,18.0681504 C24.3205641,17.6315856 24.7545899,17.304162 25.2971222,16.9767383 C25.7854012,16.6493147 26.3279334,16.4310323 26.9247189,16.2127499 C27.5215044,16.0490381 28.0640366,15.8853263 28.6065688,15.8307557 L20.7941046,36.5675846 C20.414332,37.5498554 20.0888127,38.422985 19.7632933,39.0778323 C19.437774,39.7326795 19.1665078,40.2783855 18.8409885,40.7149503 C18.5154692,41.1515152 18.1899498,41.4789388 17.8644305,41.6426506 C17.5389111,41.860933 17.1048853,41.9700742 16.6708595,41.9700742 L16.3453402,42.7886332 C17.2133918,42.7340626 17.9186837,42.6249214 18.5154692,42.406639 C19.1122546,42.2429272 19.6005336,42.0246448 20.0345594,41.7517918 C20.4685852,41.4789388 20.902611,41.2060858 21.2823836,40.8786621 C21.6079029,40.6058091 22.0419287,40.2783855 22.5302077,39.8963913 Z M32.1872816,15.7761851 C32.8925735,15.8307557 33.4351058,16.0490381 33.9233848,16.3764617 C34.3574106,16.7038853 34.7371832,17.0858795 34.954196,17.577015 C35.1712089,18.0681504 35.3339686,18.5047152 35.3882218,19.0504212 C35.4424751,19.5415566 35.4424751,20.0326921 35.3339686,20.4692569 C35.2254622,21.1786747 35.0084493,21.8880925 34.6829299,22.5975104 C34.3574106,23.2523576 33.9233848,23.9072048 33.3808526,24.4529109 C32.8383203,24.9986169 32.1872816,25.4351817 31.3734833,25.8171759 C30.5596849,26.1991701 29.6916333,26.4720231 28.6608221,26.5811643 L32.1872816,15.7761851 Z M27.6300108,2.62466994 C33.7606251,2.62466994 39.6199733,4.86206463 44.2314974,8.9002892 C48.5717553,12.7202314 51.4471762,17.849868 52.4779874,23.47064 C50.4163649,23.9617754 48.8430214,25.8171759 48.8430214,28.0545706 C48.8430214,30.2919653 50.4163649,32.1473658 52.4779874,32.6385012 C51.4471762,38.2592732 48.5717553,43.3889098 44.2314974,47.208852 C39.6199733,51.192506 33.7063719,53.4299007 27.6300108,53.4299007 C21.5536497,53.4299007 15.5857951,51.192506 11.0285242,47.1542814 C6.68826631,43.3889098 3.81284544,38.2592732 2.78203418,32.6930718 C5.00641636,32.3110776 6.68826631,30.4011065 6.68826631,28.0545706 C6.68826631,25.7080347 5.00641636,23.7980636 2.78203418,23.4160694 C3.81284544,17.7952974 6.68826631,12.6656608 11.0285242,8.9002892 C15.5857951,4.86206463 21.4993965,2.62466994 27.6300108,2.62466994 L27.6300108,2.62466994 Z M27.6300108,1.6969697 C14.4464774,1.6969697 3.54157932,11.5196781 1.6969697,24.2346284 L2.02248904,24.2346284 C4.08411156,24.2346284 5.7659615,25.9263171 5.7659615,28 C5.7659615,30.0736829 4.08411156,31.7653716 2.02248904,31.7653716 L1.6969697,31.7653716 C3.54157932,44.4803219 14.3922241,54.3030303 27.5757576,54.3030303 C40.759291,54.3030303 51.6641891,44.5348925 53.4545455,31.7653716 L53.4545455,31.7653716 C51.3929229,31.7653716 49.711073,30.0736829 49.711073,28 C49.711073,25.9263171 51.3929229,24.2346284 53.4545455,24.2346284 L53.4545455,24.2346284 C51.6641891,11.5196781 40.759291,1.6969697 27.6300108,1.6969697 L27.6300108,1.6969697 Z M46.3473731,38.9686911 C46.3473731,39.0232617 46.3473731,39.0778323 46.2931199,39.0778323 L45.9676005,39.2415441 C45.0995489,39.6781089 44.2314974,40.0601031 43.4719522,40.7695209 C41.7358491,42.406639 39.4572136,42.5157802 37.612604,41.0969445 C36.636046,40.3329561 35.6052347,40.2783855 34.954196,40.5512385 C33.489359,41.2606564 32.0245219,42.7886332 30.4511785,44.4257513 C32.0245219,43.9346159 33.6521187,43.5526217 35.3339686,43.498051 C38.806175,43.3343392 41.3560765,45.2988809 41.5730894,48.1365522 C40.271012,47.5908462 38.806175,47.481705 35.8765009,47.5908462 C34.1403977,47.6454168 33.2723461,46.0628694 31.7532558,45.6808751 C30.9937107,45.4625927 30.0714059,45.3534515 29.366114,45.5717339 C28.1182898,46.8268578 26.8704657,48.027411 25.4598818,48.8459701 C26.2736802,49.0642525 27.684264,49.3371055 27.9555301,49.3371055 C28.0640366,49.0096819 28.3353027,48.6822583 28.6608221,48.4639759 C29.4203672,48.027411 30.3969252,48.3002641 30.830951,49.0642525 C31.2649768,49.8282409 30.9937107,50.7559412 30.2341656,51.192506 C29.4746204,51.6290708 28.4980624,51.3562178 28.0640366,50.5922293 C27.9012769,50.3193763 27.8470237,50.1010939 27.8470237,49.8282409 C27.2502382,49.7736703 25.1343625,49.6645291 24.049298,49.4462467 C23.9407916,49.5008173 23.7237787,49.5553879 23.3982593,49.5553879 C22.9099803,49.6645291 22.3674481,49.7190997 21.879169,49.7190997 C17.8101772,49.7190997 14.9890096,48.027411 13.0901468,45.4080221 C11.3540436,43.0614862 11.0285242,39.8418207 11.7880694,37.1678612 C11.7880694,37.2224318 11.7880694,37.2224318 11.7880694,37.2224318 C12.1678419,41.0969445 12.4391081,42.1883566 13.632679,44.3166101 C14.609237,46.0628694 16.3453402,47.3725638 18.244203,48.027411 C19.7090401,48.5185465 20.7941046,47.9182698 20.8483578,47.9182698 C21.7706626,47.3725638 22.3674481,46.8268578 23.07274,46.0628694 C22.9099803,45.8445869 22.8014739,45.6263045 22.7472206,45.3534515 C22.584461,44.4803219 23.1812464,43.6617629 24.049298,43.498051 C24.9173496,43.3343392 25.731148,43.8800453 25.8939076,44.7531749 C26.0566673,45.6263045 25.4598818,46.4448636 24.5918303,46.6085754 C24.2120577,46.663146 23.8322851,46.6085754 23.5067658,46.390293 C23.1269932,46.8814284 22.4217013,47.9728404 21.879169,48.5731171 C24.6460835,49.1188231 27.0874786,46.6085754 29.6373801,43.8800453 C29.854393,43.6071923 30.1256591,43.3889098 30.3969252,43.1160568 C30.6681913,42.6249214 30.830951,42.133786 30.830951,41.8063624 C30.830951,40.8786621 30.0714059,39.8418207 30.0714059,38.7504087 C30.0714059,36.5675846 31.9702687,34.6030429 34.5744235,33.9481956 C34.0318912,34.8758959 33.7606251,35.6944549 33.7063719,36.785867 C33.5978654,38.422985 32.7840671,40.1146737 31.8617623,41.6426506 C33.00108,40.6058091 34.1946509,39.6781089 35.4424751,39.2961147 C35.9850073,39.1324029 36.6902992,38.8595499 37.1785782,38.4775556 C38.0466298,37.7681378 39.0774411,37.1132906 40.1625056,36.8404376 C41.4103297,36.5675846 42.1698748,36.8950082 43.2549393,37.5498554 C44.0687377,38.0955614 44.8825361,38.2592732 45.7505876,38.4775556 C45.9676005,38.5321262 46.1846134,38.5866968 46.4016263,38.6412674 C46.2931199,38.8595499 46.3473731,38.9141205 46.3473731,38.9686911 Z M47.7037037,29.8554005 C47.7037037,29.9645417 47.7037037,30.0736829 47.7037037,30.1282535 C47.7579569,31.8199422 46.8356521,33.4024896 45.4793215,34.3847605 C43.905978,35.5307431 42.3326345,35.7490255 40.5965314,35.2578901 C40.6507846,35.2578901 40.9763039,34.1119075 40.9763039,32.5839306 C40.9763039,31.6562304 40.759291,30.6739595 40.1082523,29.9099711 C39.4029604,29.091412 38.1551363,28.6002766 37.124325,29.091412 C36.5817928,29.3096945 36.2020202,29.7462593 36.0392605,30.2373947 C35.9307541,30.6193889 35.9307541,31.1105243 36.0935138,31.4925185 C36.2020202,31.8199422 36.4732863,32.256507 36.9615653,32.4202188 C37.2870847,32.52936 37.612604,32.52936 37.9381234,32.4202188 C38.2636427,32.3110776 38.4806556,32.0927952 38.5891621,31.7653716 C38.6976685,31.4925185 38.6434153,31.1650949 38.4264024,30.8922419 C38.4806556,31.0559537 38.4806556,31.1650949 38.4264024,31.2742361 C38.3721492,31.4379479 38.2636427,31.6016598 38.0466298,31.6562304 C37.8838701,31.710801 37.6668573,31.7653716 37.5040976,31.6562304 C37.2870847,31.6016598 37.0700718,31.3833773 36.9615653,31.2196655 C36.8530589,31.0013831 36.7988057,30.7831007 36.9073121,30.5648183 C37.0158186,30.2919653 37.1785782,30.0736829 37.4498444,29.9645417 C37.7211105,29.8554005 38.0466298,29.8554005 38.3178959,29.9645417 C39.1859475,30.2919653 39.5114669,31.2196655 39.294454,31.983654 C39.1316943,32.4747894 38.806175,32.802213 38.3178959,33.0204954 C37.8296169,33.1842072 37.2870847,33.1842072 36.7988057,33.0204954 C36.2562734,32.8567836 35.8765009,32.4747894 35.6052347,31.983654 C35.5509815,31.8745128 35.4967283,31.8199422 35.4424751,31.710801 C35.2254622,31.1650949 35.1712089,30.5102477 35.3339686,29.9099711 C35.5509815,29.2005533 36.0392605,28.6548472 36.7445524,28.3274236 C37.4498444,28.0545706 38.2093895,28.0545706 38.9689346,28.272853 C41.1933168,28.9822708 41.8443555,30.8922419 42.0071152,32.8567836 C43.417699,30.0736829 45.5335747,27.5634352 46.076107,24.5620521 C46.1846134,23.8526342 45.8590941,22.924934 44.8282828,22.2700868 C42.9836732,21.0149629 42.3868877,18.8321388 43.4719522,16.7584559 C43.9602312,15.8307557 44.0687377,14.9576261 44.2314974,14.0299258 L44.2857506,13.6479316 C44.2857506,13.593361 44.3400038,13.5387904 44.394257,13.5387904 C44.4485103,13.5387904 44.5027635,13.5387904 44.5027635,13.593361 C44.6112699,13.7570728 44.7197764,13.9753552 44.8282828,14.139067 C45.2623086,14.8484848 45.6963344,15.5579027 46.4558796,16.1581793 C47.3781844,16.9221677 47.9207166,17.577015 48.029223,18.7775682 C48.1377295,19.8689803 47.7579569,21.0149629 47.3239311,22.0518044 C47.1069182,22.652081 47.052665,23.4160694 47.052665,23.9072048 C46.9441586,26.5265937 45.4250683,28.6548472 44.1772441,30.8376713 C43.5804587,31.8199422 43.0379264,32.802213 42.6039006,33.7299132 C44.1772441,32.256507 45.8048409,31.5470891 46.7271457,30.8922419 C47.2696779,30.5102477 47.3781844,30.0191123 47.7037037,29.6371181 C47.6494505,29.8008299 47.6494505,29.8008299 47.7037037,29.8554005 Z M17.9729369,36.0218785 C17.755924,37.2770024 17.2133918,37.877279 16.2368337,38.5866968 C15.4772886,39.1324029 14.9890096,39.7872501 14.4464774,40.4966679 C14.3379709,40.6603797 14.1752112,40.8240915 14.0667048,41.0423739 C14.0124516,41.0969445 14.0124516,41.0969445 13.9581983,41.0969445 C13.9039451,41.0969445 13.9039451,41.0423739 13.8496919,40.9878033 L13.7954387,40.6058091 C13.7411854,39.6235383 13.632679,38.7504087 13.2529064,37.7681378 C12.3306016,35.5853137 13.0358935,33.4024896 14.9890096,32.3110776 C16.0740741,31.710801 16.5080999,30.7831007 16.3995934,30.0736829 C16.2368337,28.4365648 15.3687822,26.5265937 14.3922241,24.5074815 C14.2837177,26.1445995 14.0667048,27.7817176 13.5784258,29.3096945 C12.4933613,32.52936 9.78070008,34.1664781 7.06803888,33.347919 C8.04459691,32.3656482 8.64138238,31.0559537 9.56368719,28.3274236 C10.1062194,26.7448761 11.8965758,26.4720231 12.8188806,25.2168993 C14.4464774,22.9795046 12.9273871,21.1786747 12.2220952,18.94128 C11.8965758,17.9044386 11.7880694,16.9767383 12.0050823,15.8307557 C12.1135887,15.3941909 12.2763484,14.684773 12.4391081,14.3027788 C10.8115113,14.2482082 10.4317388,17.1950207 9.72644686,20.1418333 C9.45518074,21.2332453 7.339305,22.7066516 6.95953243,23.5252106 C6.95953243,23.5252106 6.90527921,23.5252106 6.90527921,23.5252106 C6.85102598,23.4160694 6.85102598,23.3069282 6.85102598,23.197787 C6.41700019,19.7052685 9.61794041,13.2659374 15.0432628,10.4828367 C15.1517693,10.4282661 15.6400483,10.1554131 15.8570612,10.1554131 C16.291087,10.4282661 16.4538466,10.9739721 16.3995934,11.2468251 C15.5315418,11.5742487 14.0667048,12.5565196 14.0667048,13.6479316 C14.0667048,14.2482082 14.3379709,14.7939142 14.5549838,15.3396203 C14.8262499,15.9398969 15.1517693,16.5401735 15.4772886,17.1404501 C15.7485547,17.0313089 16.0198209,17.0313089 16.291087,17.0858795 C17.1591386,17.2495913 17.7016708,18.0681504 17.5389111,18.94128 C17.3761515,19.8144097 16.5623531,20.3601157 15.6943015,20.1418333 C14.8262499,19.9781215 14.2837177,19.1595624 14.4464774,18.2864328 C14.5007306,17.9044386 14.7177435,17.577015 14.9890096,17.3587326 C14.6634902,16.8130265 13.8496919,15.8307557 13.5241725,15.0667673 C12.0593355,17.3587326 13.4699193,20.4146863 14.9890096,23.6343518 C16.0740741,25.9263171 17.4304047,28.2182824 17.3761515,30.8922419 C17.3761515,31.4379479 17.3218982,32.2019364 17.5389111,32.802213 C17.8644305,33.7299132 18.1899498,34.8758959 17.9729369,36.0218785 Z M42.7124071,13.9753552 C42.7124071,14.3027788 42.4953942,15.7216145 42.1698748,15.7761851 C41.952862,15.7761851 41.6815958,15.2304791 41.5730894,15.0667673 C41.3560765,14.6302024 41.4103297,14.139067 41.4103297,13.6479316 C41.4103297,12.6656608 41.4103297,11.4105369 40.7050378,10.6465485 C40.4880249,10.4282661 40.1625056,10.2099837 39.8912394,10.2099837 C39.5114669,10.1554131 39.1316943,10.2099837 38.8604282,10.5374073 C38.6434153,10.8102603 38.6434153,11.1376839 38.5349088,11.4651075 C38.2636427,12.2290959 37.3413379,12.6656608 36.5817928,12.3382371 C35.8222476,12.0108135 35.4424751,11.0831133 35.7679944,10.3191249 C36.0935138,9.60970703 37.0700718,9.22771281 37.8296169,9.60970703 C38.3178959,9.88256004 38.5891621,9.93713064 39.0774411,9.60970703 C39.1316943,9.55513643 39.5657201,9.17314221 39.5657201,9.17314221 C37.124325,7.53602414 34.0318912,9.11857161 31.6990026,10.1008424 C29.5288736,11.0285427 27.3044915,12.2290959 24.8630964,11.9562429 C24.3748174,11.9016723 23.6695254,11.8471017 23.07274,11.9562429 C22.0961819,12.2290959 21.0111175,12.4473783 19.9803062,12.1745253 C18.8409885,11.9016723 18.3527095,11.2468251 17.755924,10.2645543 C17.267645,9.44599522 16.7251128,8.9002892 16.0740741,8.35458318 C15.9113144,8.19087137 15.7485547,8.08173016 15.5857951,7.91801836 C15.5315418,7.86344776 15.5315418,7.86344776 15.5315418,7.80887715 C15.5315418,7.75430655 15.5857951,7.75430655 15.6400483,7.75430655 L16.0198209,7.75430655 C16.8878724,7.75430655 17.755924,7.75430655 18.6782288,7.42688294 C20.7398513,6.66289451 22.6929674,7.53602414 23.6152722,9.55513643 C24.1035512,10.6465485 24.9173496,11.1376839 25.5683883,11.1376839 C26.3821866,11.1376839 27.2502382,10.9739721 28.0640366,10.7011191 C27.9555301,10.6465485 27.7927705,10.6465485 27.684264,10.5919779 C26.8162124,10.2645543 26.1109205,9.71884823 25.731148,8.9002892 C24.9716028,7.42688294 25.6226415,5.62605306 27.0332253,4.86206463 C28.2267963,4.2072174 29.9086462,4.53464102 30.6139381,5.78976487 C30.9394575,6.33547089 30.9394575,6.93574752 30.7224446,7.48145354 C30.3969252,8.30001257 29.366114,8.9548598 28.3353027,8.57286559 C28.0097834,8.46372438 27.7385172,8.24544197 27.5757576,7.91801836 C27.4129979,7.59059474 27.4129979,7.26317113 27.5215044,6.99031812 C27.6300108,6.77203571 27.7927705,6.5537533 28.0640366,6.4446121 C28.3353027,6.33547089 28.6065688,6.33547089 28.877835,6.39004149 C29.0948478,6.4446121 29.2576075,6.6083239 29.366114,6.82660631 C29.4746204,7.04488872 29.4746204,7.26317113 29.4203672,7.42688294 C29.366114,7.59059474 29.2576075,7.69973595 29.0948478,7.80887715 C29.4746204,7.69973595 29.7458865,7.42688294 29.854393,7.15402993 C30.0171527,6.82660631 29.9628994,6.4446121 29.7458865,6.11718848 C29.5831269,5.78976487 29.2576075,5.57148246 28.877835,5.40777065 C27.8470237,5.08034704 26.7619592,5.84433547 26.3821866,6.71746511 C26.1109205,7.31774173 26.1651738,7.97258896 26.4364399,8.57286559 C27.4672511,10.5919779 29.8001398,9.99170124 31.4277365,9.28228342 C32.1872816,8.9548598 32.8925735,8.62743619 33.6521187,8.35458318 C34.7914364,7.91801836 36.0392605,7.48145354 37.2328315,7.53602414 C38.7519217,7.59059474 40.271012,8.46372438 41.1390636,9.71884823 C41.8986087,10.8648309 41.8986087,12.3382371 42.2783813,13.593361 C42.4953942,13.7025022 42.6039006,13.866214 42.7124071,13.9753552 Z" id="Shape"></path>
                </g>
            </g>
        </g>
    </g>
</svg>