<?xml version="1.0" encoding="UTF-8"?>
<svg width="60px" height="28px" viewBox="0 0 60 28" version="1.1" xmlns="http://www.w3.org/2000/svg" xmlns:xlink="http://www.w3.org/1999/xlink">
    <!-- Generator: Sketch 46.2 (44496) - http://www.bohemiancoding.com/sketch -->
    <title>Fill 1</title>
    <desc>Created with Sketch.</desc>
    <defs>
        <linearGradient x1="0.988885055%" y1="50.7600307%" x2="100%" y2="50.7600307%" id="linearGradient-1">
            <stop stop-color="#A26343" offset="0%"></stop>
            <stop stop-color="#D2996C" offset="49.1430166%"></stop>
            <stop stop-color="#A26343" offset="100%"></stop>
        </linearGradient>
    </defs>
    <g id="FINAL" stroke="none" stroke-width="1" fill="none" fill-rule="evenodd">
        <g id="HOME---FINAL" transform="translate(-532.000000, -538.000000)" fill="url(#linearGradient-1)">
            <g id="MISSION" transform="translate(441.000000, 433.000000)">
                <g id="Mission">
                    <g id="Tagline" transform="translate(91.000000, 105.000000)">
                        <path d="M58.8842388,16.177 C59.6532388,18.492 58.8332388,21.503 56.3042388,22.343 C54.3222388,23 51.9802388,22.107 51.3002388,20.059 C50.8002388,18.554 51.4632388,16.662 53.0352388,16.141 C54.1262388,15.78 55.3772388,16.347 55.7402388,17.443 C56.0342388,18.329 55.5092388,19.264 54.6912388,19.536 C54.0092388,19.762 53.1932388,19.357 52.9652388,18.671 C52.8282388,18.261 52.9202388,17.85 53.1002388,17.484 C52.4162388,17.943 52.2792388,18.899 52.5292388,19.651 C53.0022388,21.079 54.6222388,21.611 55.9182388,21.18 C57.7662388,20.568 58.1992388,18.225 57.6552388,16.585 C56.8842388,14.261 54.2672388,13.004 52.0152388,13.751 C47.9422388,15.103 46.9032388,19.661 47.3632388,23.638 C47.3582388,23.634 47.3522388,23.633 47.3472388,23.63 C47.4472388,24.539 47.4072388,25.148 47.4072388,25.148 C46.2302388,25.344 44.7902388,23.773 44.7902388,23.773 C45.2172388,22.797 45.2392388,21.916 45.0682388,21.164 C45.0192388,21.052 44.9622388,20.955 44.9112388,20.849 C43.0692388,20.667 41.0582388,20.815 39.3982388,21.176 C39.4342388,21.629 39.3672388,22.095 39.1602388,22.535 C38.5262388,23.883 36.9182388,24.461 35.5722388,23.826 C34.2242388,23.192 33.6462388,21.585 34.2812388,20.238 C34.9152388,18.891 36.5222388,18.313 37.8702388,18.948 C38.4792388,19.235 38.9212388,19.725 39.1742388,20.296 C40.2292388,19.992 42.2142388,19.121 43.6052388,18.887 C40.3362388,15.365 34.4542388,16.481 28.2722388,17.673 C27.6862388,17.785 27.0942388,17.899 26.4992388,18.008 C25.6562388,18.394 24.9242388,18.974 24.6142388,19.419 C23.6832388,20.761 23.7422388,22.905 22.6862388,24.428 C20.5702388,27.474 15.9752388,28.349 11.7022388,26.642 C13.3922388,25.905 14.5652388,24.966 15.6862388,23.557 C17.4422388,21.343 20.2662388,19.787 23.0262388,18.563 C20.4182388,18.894 17.8922388,18.96 15.7462388,18.31 C14.8582388,18.04 13.6252388,17.671 12.4962388,17.72 C10.5862388,17.803 8.53423878,17.772 6.75423878,16.984 C4.76323878,16.104 4.02123878,14.873 3.24123878,12.912 C2.62623878,11.352 1.72323878,10.264 0.766238778,9.112 C0.526238778,8.822 0.281238778,8.529 0.0422387782,8.227 C-0.00876122184,8.162 -0.0137612218,8.073 0.0282387782,8 C0.0712387782,7.931 0.153238778,7.893 0.234238778,7.907 L0.882238778,8.027 C2.50723878,8.33 4.04223878,8.617 5.83123878,8.379 C9.82823878,7.8 13.1342388,9.965 14.2142388,13.745 C14.8032388,15.806 16.1402388,16.917 17.3682388,17.122 C20.1502388,17.587 23.6522388,16.96 27.4202388,16.236 C24.7262388,15.356 22.1242388,14.265 19.7702388,12.709 C14.8452388,9.456 13.2282388,4.155 15.7122388,0 C16.9632388,2.077 18.8762388,3.684 22.9992388,6.432 C25.4232388,8.049 25.1022388,11.14 26.8072388,13.222 C27.6632388,14.267 28.8182388,15.381 30.0512388,15.74 C32.9812388,15.205 35.9702388,14.782 38.6472388,15.048 C37.7172388,13.884 36.0302388,12.178 35.7242388,11.846 C35.2112388,12.202 34.5792388,12.393 33.9092388,12.322 C32.4282388,12.164 31.3552388,10.836 31.5122388,9.355 C31.6692388,7.874 32.9972388,6.801 34.4792388,6.958 C35.9592388,7.115 37.0322388,8.444 36.8752388,9.925 C36.8232388,10.409 36.6382388,10.842 36.3722388,11.21 C37.1042388,11.906 39.9782388,14.127 41.2332388,15.568 C42.2472388,15.902 43.1742388,16.41 44.0042388,17.099 L44.0052388,17.098 C44.0072388,17.1 44.0082388,17.102 44.0102388,17.104 C44.2252388,17.282 44.4302388,17.476 44.6302388,17.681 C44.6752388,17.728 44.7172388,17.776 44.7612388,17.823 C44.9292388,18.004 45.0992388,18.183 45.2562388,18.386 C45.6182388,18.841 45.9052388,19.309 46.1572388,19.777 C46.6542388,16.595 48.4382388,13.648 51.6292388,12.589 C54.5682388,11.614 57.8852388,13.167 58.8842388,16.177" id="Fill-1"></path>
                    </g>
                </g>
            </g>
        </g>
    </g>
</svg>