<?xml version="1.0" encoding="UTF-8"?>
<svg  viewBox="0 0 681 46" version="1.1" xmlns="http://www.w3.org/2000/svg" xmlns:xlink="http://www.w3.org/1999/xlink">
    <!-- Generator: Sketch 46.2 (44496) - http://www.bohemiancoding.com/sketch -->
    <title>Tonics &amp; Sodas</title>
    <desc>Created with Sketch.</desc>
    <defs>
        <linearGradient x1="0.988885055%" y1="50.7600307%" x2="98.8870721%" y2="50.7600307%" id="linearGradient-1">
            <stop stop-color="#E3A474" offset="0%"></stop>
            <stop stop-color="#A26343" offset="22.4091199%"></stop>
            <stop stop-color="#E7A575" offset="45.9442761%"></stop>
            <stop stop-color="#DAA06B" offset="67.6957111%"></stop>
            <stop stop-color="#A26343" offset="84.7775829%"></stop>
            <stop stop-color="#E3A474" offset="100%"></stop>
        </linearGradient>
    </defs>
    <g id="Symbols" stroke="none" stroke-width="1" fill="none" fill-rule="evenodd">
        <g id="CONTACT" transform="translate(-47.000000, -390.000000)" fill="url(#linearGradient-1)">
            <g transform="translate(0.000000, 3.000000)" id="Main-Content">
                <g transform="translate(0.000000, 296.000000)">
                    <path d="M548.75346,100.171093 L542.06136,100.171093 L542.066734,97.6810962 L542.073899,97.6810962 L548.75346,97.7156542 L548.75346,100.171093 Z M551.460035,97.0826967 C551.460035,95.8022311 550.43365,94.7636716 549.174403,94.7636716 L541.635043,94.7636716 C540.377588,94.7636716 539.352994,95.8022311 539.352994,97.0826967 L539.352994,103.088517 L551.460035,103.088517 L551.460035,97.0826967 Z M551.250459,111.364254 L545.3071,114.889172 L551.460035,114.889172 L551.460035,117.741118 L539.352994,117.741118 L539.352994,115.069237 L545.531006,111.422457 L539.352994,111.422457 L539.352994,108.57051 L551.460035,108.57051 L551.460035,111.236935 L551.250459,111.364254 Z M546.35498,128.2413 L543.938587,127.497393 L546.35498,126.753486 L546.35498,128.2413 Z M551.460035,125.058324 L551.460035,122.07724 L539.352994,126.22784 L539.352994,128.750576 L551.460035,132.901176 L551.460035,129.910998 L549.007817,129.12162 L549.007817,125.88226 L551.460035,125.058324 Z M714.755517,91.3897175 L719.393056,91.3897175 C722.671039,91.3897175 724.928011,92.1863708 726.155015,93.7778586 C727.385602,95.3693464 727.980296,97.7793137 727.944471,101.002304 L727.944471,103.337699 L720.716788,106.011398 L720.716788,101.002304 C720.716788,100.016491 720.557367,99.2598521 720.238525,98.726931 C719.923266,98.1976476 719.2408,97.9302777 718.196503,97.9302777 L715.900124,97.9302777 C714.814628,97.9302777 714.123207,98.2449376 713.824068,98.8706196 C713.526721,99.4944828 713.376257,100.265672 713.376257,101.173275 L713.433577,104.245301 C713.433577,104.850976 713.489105,105.34752 713.600163,105.72584 C713.71122,106.104159 713.915422,106.446102 714.21456,106.74803 C714.511907,107.053595 714.922103,107.357342 715.443356,107.65927 C715.964609,107.964836 716.634536,108.343155 717.451344,108.797866 L721.693018,111.129623 C722.993464,111.849885 724.055673,112.513763 724.874273,113.121256 C725.691082,113.726931 726.33414,114.390809 726.798073,115.111071 C727.263797,115.833151 727.580848,116.686189 727.749225,117.670183 C727.915811,118.659634 728,119.912817 728,121.427913 L728,126.204195 C728,128.026676 727.897899,129.581787 727.691905,130.871347 C727.485912,132.160907 727.079299,133.214017 726.46311,134.02704 C725.848712,134.843701 724.981748,135.431187 723.86401,135.793137 C722.748063,136.151449 721.29357,136.333333 719.505905,136.333333 L715.258858,136.333333 C713.584041,136.333333 712.167165,136.182369 711.01181,135.876804 C709.854664,135.574876 708.914259,135.03286 708.188804,134.254396 C707.463349,133.477749 706.942096,132.446465 706.623254,131.155087 C706.306203,129.865527 706.150365,128.254032 706.150365,126.318783 L706.150365,122.622893 L713.376257,119.89281 L713.376257,126.145992 C713.376257,127.057233 713.533886,127.881169 713.852728,128.623257 C714.169779,129.363526 714.870157,129.732751 715.955653,129.732751 L718.139183,129.676367 C718.810901,129.676367 719.316033,129.56178 719.650996,129.332606 C719.989542,129.10525 720.23136,128.825149 720.378243,128.481387 C720.528707,128.141263 720.611105,127.762944 720.6326,127.342791 C720.650512,126.928095 720.66126,126.546138 720.66126,126.204195 L720.66126,122.451922 C720.66126,121.844428 720.6326,121.284225 720.577071,120.77313 C720.521542,120.260216 720.322714,119.758215 719.989542,119.265309 C719.79967,119.001576 719.371562,118.628713 718.699844,118.157633 C718.026335,117.681096 717.261472,117.217291 716.401673,116.76258 L712.312256,114.601795 C711.042261,113.91791 710.005129,113.301322 709.20265,112.752031 C708.39838,112.20274 707.764279,111.586153 707.298554,110.902267 C706.829248,110.218382 706.512197,109.385352 706.345611,108.399539 C706.179025,107.413726 706.094836,106.142355 706.094836,104.587244 L706.094836,102.255487 C706.094836,100.171093 706.24351,98.425003 706.539066,97.0226749 C706.838204,95.6185279 707.330797,94.4981205 708.020427,93.6650903 C708.711849,92.8302413 709.60389,92.2409361 710.703716,91.9026313 C711.80175,91.5606887 713.152351,91.3897175 714.755517,91.3897175 L714.755517,91.3897175 Z M680.657333,120.913181 L684.075032,104.301685 L684.187881,104.301685 L687.492732,120.913181 L680.657333,120.913181 Z M680.433427,91.6170729 L670.124798,135.989572 L677.744764,135.989572 L679.369426,127.741118 L688.836168,127.741118 L690.460829,135.989572 L698.082587,135.989572 L687.772167,91.6170729 L680.433427,91.6170729 Z M654.773808,125.638535 C654.773808,126.964472 654.47467,127.881169 653.878185,128.395902 C653.279908,128.908815 652.289348,129.161635 650.906505,129.161635 L647.488805,129.161635 L647.488805,98.4413726 L650.906505,98.4413726 C652.400406,98.4413726 653.419625,98.6796411 653.960582,99.156178 C654.501539,99.6290772 654.773808,100.565781 654.773808,101.969928 L654.773808,125.638535 Z M656.717312,92.0426822 C655.32193,91.7589426 653.523518,91.6170729 651.327448,91.6170729 L640.205594,91.6170729 L640.205594,135.989572 L651.382977,135.989572 C653.616663,135.989572 655.434779,135.829514 656.83016,135.509397 C658.227333,135.187462 659.309247,134.549048 660.072318,133.601431 C660.833598,132.653814 661.356642,131.336971 661.639659,129.649085 C661.917303,127.959379 662.05702,125.751304 662.05702,123.02122 L662.05702,104.07433 C662.05702,101.344246 661.906555,99.1616345 661.610999,97.5337699 C661.311861,95.9022675 660.772696,94.6490845 659.989921,93.7778586 C659.207146,92.9066327 658.116276,92.3282406 656.717312,92.0426822 L656.717312,92.0426822 Z M623.118885,126.829878 C623.118885,127.590154 622.93976,128.254032 622.586885,128.825149 C622.232218,129.38899 621.680514,129.694556 620.931772,129.732751 L617.515863,129.732751 C616.656065,129.732751 616.077492,129.441736 615.778354,128.852431 C615.479215,128.264945 615.330542,127.590154 615.330542,126.829878 L615.330542,101.058688 C615.330542,100.302049 615.450555,99.6017946 615.694165,98.9561053 C615.937775,98.3122348 616.525304,97.9866618 617.458544,97.9866618 L621.044621,97.9866618 C621.791571,97.9866618 622.323571,98.3122348 622.642413,98.9561053 C622.959464,99.6017946 623.118885,100.302049 623.118885,101.058688 L623.118885,126.829878 Z M630.094002,98.6996484 C629.96145,97.8829878 629.757248,97.1045229 629.476022,96.3678914 C629.196587,95.6276222 628.81326,94.9346429 628.329624,94.2907724 C627.31936,93.0012126 626.264316,92.1863708 625.162698,91.8444283 C624.061081,91.5024858 622.760636,91.3333333 621.268527,91.3333333 L617.234638,91.3333333 C615.738946,91.3333333 614.424171,91.5024858 613.284937,91.8444283 C612.145704,92.1863708 611.070955,93.0012126 610.064274,94.2907724 C609.54123,94.9346429 609.148947,95.6276222 608.887425,96.3678914 C608.625903,97.1045229 608.427074,97.8829878 608.298105,98.6996484 C608.167344,99.5144901 608.093902,100.331151 608.07599,101.145992 C608.054495,101.960834 608.049121,102.768401 608.049121,103.561416 L607.99001,124.840063 C607.99001,126.735298 608.138684,128.404996 608.437822,129.84552 C608.73696,131.289681 609.260004,132.493755 610.006955,133.457742 C610.753905,134.425367 611.753421,135.145629 613.005503,135.622166 C614.255793,136.095065 615.814178,136.333333 617.682449,136.333333 L621.436904,136.333333 C624.64861,136.333333 626.955737,135.372984 628.356492,133.457742 C629.757248,131.544319 630.439713,128.670547 630.400306,124.840063 L630.346568,103.561416 C630.346568,102.768401 630.335821,101.960834 630.317908,101.145992 C630.298205,100.331151 630.222972,99.5144901 630.094002,98.6996484 L630.094002,98.6996484 Z M583.788467,119.89281 L583.788467,126.145992 C583.788467,127.057233 583.944306,127.881169 584.263148,128.623257 C584.580198,129.363526 585.282367,129.732751 586.366072,129.732751 L588.549603,129.676367 C589.22132,129.676367 589.726452,129.56178 590.063207,129.332606 C590.399961,129.10525 590.641779,128.825149 590.790453,128.481387 C590.940918,128.141263 591.023315,127.762944 591.043019,127.342791 C591.060931,126.928095 591.071679,126.546138 591.071679,126.204195 L591.071679,122.451922 C591.071679,121.844428 591.043019,121.284225 590.985699,120.77313 C590.93017,120.260216 590.734924,119.758215 590.399961,119.265309 C590.21188,119.001576 589.781981,118.628713 589.110263,118.157633 C588.436754,117.681096 587.673683,117.217291 586.812093,116.76258 L582.722675,114.601795 C581.452681,113.91791 580.41734,113.301322 579.61307,112.752031 C578.808799,112.20274 578.176489,111.586153 577.708974,110.902267 C577.239667,110.218382 576.924407,109.385352 576.75603,108.399539 C576.589444,107.413726 576.505255,106.142355 576.505255,104.587244 L576.505255,102.255487 C576.505255,100.171093 576.652138,98.425003 576.949485,97.0226749 C577.248623,95.6185279 577.743007,94.4981205 578.430846,93.6650903 C579.120477,92.8302413 580.014309,92.2409361 581.114135,91.9026313 C582.213961,91.5606887 583.564561,91.3897175 585.165936,91.3897175 L589.803476,91.3897175 C593.081458,91.3897175 595.33843,92.1863708 596.565434,93.7778586 C597.796021,95.3693464 598.390715,97.7793137 598.354891,101.002304 L598.354891,103.337699 L591.127207,106.011398 L591.127207,101.002304 C591.127207,100.016491 590.967786,99.2598521 590.650736,98.726931 C590.333685,98.1976476 589.65122,97.9302777 588.605131,97.9302777 L586.310543,97.9302777 C585.225047,97.9302777 584.535417,98.2449376 584.236279,98.8706196 C583.937141,99.4944828 583.788467,100.265672 583.788467,101.173275 L583.843996,104.245301 C583.843996,104.850976 583.899524,105.34752 584.012373,105.72584 C584.121639,106.104159 584.325841,106.446102 584.62498,106.74803 C584.920535,107.053595 585.330731,107.357342 585.851984,107.65927 C586.373237,107.964836 587.043164,108.343155 587.861764,108.797866 L592.103437,111.129623 C593.405674,111.849885 594.467884,112.513763 595.284693,113.121256 C596.103293,113.726931 596.744559,114.390809 597.210283,115.111071 C597.676008,115.833151 597.991267,116.686189 598.159645,117.670183 C598.328022,118.659634 598.41221,119.912817 598.41221,121.427913 L598.41221,126.204195 C598.41221,128.026676 598.308318,129.581787 598.104116,130.871347 C597.898122,132.160907 597.487927,133.214017 596.873529,134.02704 C596.259131,134.843701 595.392167,135.431187 594.274429,135.793137 C593.158482,136.151449 591.70578,136.333333 589.914533,136.333333 L585.669277,136.333333 C583.992669,136.333333 582.577584,136.182369 581.422229,135.876804 C580.266875,135.574876 579.324679,135.03286 578.599224,134.254396 C577.871977,133.477749 577.350724,132.446465 577.033673,131.155087 C576.716623,129.865527 576.560784,128.254032 576.560784,126.318783 L576.560784,122.622893 L583.788467,119.89281 Z M500.196327,119.89281 L500.196327,126.145992 C500.196327,127.057233 500.353957,127.881169 500.672799,128.623257 C500.98985,129.363526 501.692019,129.732751 502.773932,129.732751 L504.959254,129.676367 C505.630971,129.676367 506.136103,129.56178 506.472858,129.332606 C506.807821,129.10525 507.051431,128.825149 507.200104,128.481387 C507.350569,128.141263 507.432966,127.762944 507.450879,127.342791 C507.470583,126.928095 507.479539,126.546138 507.479539,126.204195 L507.479539,122.451922 C507.479539,121.844428 507.450879,121.284225 507.39535,120.77313 C507.339821,120.260216 507.144575,119.758215 506.807821,119.265309 C506.621531,119.001576 506.191632,118.628713 505.519914,118.157633 C504.846405,117.681096 504.081543,117.217291 503.221744,116.76258 L499.132326,114.601795 C497.862332,113.91791 496.8252,113.301322 496.022721,112.752031 C495.218451,112.20274 494.58614,111.586153 494.118625,110.902267 C493.649318,110.218382 493.334058,109.385352 493.165681,108.399539 C492.997304,107.413726 492.913115,106.142355 492.913115,104.587244 L492.913115,102.255487 C492.913115,100.171093 493.061789,98.425003 493.359136,97.0226749 C493.658274,95.6185279 494.152658,94.4981205 494.840497,93.6650903 C495.530128,92.8302413 496.422169,92.2409361 497.521995,91.9026313 C498.621821,91.5606887 499.974212,91.3897175 501.575587,91.3897175 L506.213127,91.3897175 C509.49111,91.3897175 511.74629,92.1863708 512.975086,93.7778586 C514.203881,95.3693464 514.800367,97.7793137 514.76275,101.002304 L514.76275,103.337699 L507.535067,106.011398 L507.535067,101.002304 C507.535067,100.016491 507.377438,99.2598521 507.060387,98.726931 C506.743336,98.1976476 506.05908,97.9302777 505.014782,97.9302777 L502.718403,97.9302777 C501.634699,97.9302777 500.943277,98.2449376 500.64593,98.8706196 C500.346792,99.4944828 500.196327,100.265672 500.196327,101.173275 L500.251856,104.245301 C500.251856,104.850976 500.307384,105.34752 500.420233,105.72584 C500.53129,106.104159 500.735492,106.446102 501.03284,106.74803 C501.330187,107.053595 501.740382,107.357342 502.261635,107.65927 C502.782888,107.964836 503.452815,108.343155 504.271415,108.797866 L508.513088,111.129623 C509.815325,111.849885 510.875744,112.513763 511.694344,113.121256 C512.512944,113.726931 513.15421,114.390809 513.619935,115.111071 C514.085659,115.833151 514.400919,116.686189 514.569296,117.670183 C514.735882,118.659634 514.82007,119.912817 514.82007,121.427913 L514.82007,126.204195 C514.82007,128.026676 514.717969,129.581787 514.513767,130.871347 C514.307774,132.160907 513.897578,133.214017 513.281389,134.02704 C512.666991,134.843701 511.800027,135.431187 510.68408,135.793137 C509.566342,136.151449 508.11364,136.333333 506.324184,136.333333 L502.077137,136.333333 C500.40232,136.333333 498.987235,136.182369 497.831881,135.876804 C496.676526,135.574876 495.73433,135.03286 495.008875,134.254396 C494.281628,133.477749 493.760375,132.446465 493.443325,131.155087 C493.126274,129.865527 492.968644,128.254032 492.968644,126.318783 L492.968644,122.622893 L500.196327,119.89281 Z M476.10405,106.011398 L476.10405,100.944101 C476.10405,100.265672 476.012697,99.6017946 475.824616,98.9561053 C475.640117,98.3122348 475.117073,97.9866618 474.255483,97.9866618 L471.007951,97.9866618 C470.07292,97.9866618 469.485391,98.3122348 469.241782,98.9561053 C468.999963,99.6017946 468.878158,100.302049 468.878158,101.058688 L468.878158,126.829878 C468.878158,127.590154 469.026832,128.264945 469.32597,128.852431 C469.625109,129.441736 470.203681,129.732751 471.06348,129.732751 L474.033368,129.732751 C474.891376,129.732751 475.462784,129.458106 475.740427,128.908815 C476.019862,128.357706 476.16137,127.70656 476.16137,126.944465 L476.16137,121.711653 L483.389053,124.441736 L483.389053,126.489754 C483.389053,128.274039 483.258292,129.789135 482.99677,131.042318 C482.737039,132.291864 482.27848,133.306778 481.622883,134.085243 C480.970869,134.861889 480.102114,135.431187 479.01841,135.793137 C477.934705,136.151449 476.591269,136.333333 474.984521,136.333333 L471.231857,136.333333 C469.13968,136.333333 467.466655,136.095065 466.216365,135.622166 C464.964283,135.145629 463.984471,134.425367 463.275137,133.457742 C462.565803,132.493755 462.098287,131.289681 461.874381,129.84552 C461.652267,128.404996 461.539418,126.735298 461.539418,124.840063 L461.594947,103.561416 C461.594947,102.768401 461.603903,101.960834 461.621815,101.145992 C461.641519,100.331151 461.71496,99.5144901 461.845721,98.6996484 C461.976482,97.8829878 462.17352,97.1045229 462.436833,96.3678914 C462.696564,95.6276222 463.088847,94.9346429 463.611891,94.2907724 C464.618572,93.0012126 465.693321,92.1936462 466.834345,91.8717109 C467.971787,91.5497757 469.288354,91.3897175 470.784046,91.3897175 L474.479389,91.3897175 C476.34766,91.3897175 477.861264,91.5297684 479.01841,91.8153268 C480.177347,92.1008852 481.083718,92.5828786 481.735732,93.2667637 C482.389537,93.9488299 482.828393,94.8600703 483.052299,95.9968473 C483.276205,97.1354432 483.389053,98.5559597 483.389053,100.265672 L483.389053,103.279496 L476.10405,106.011398 Z M444.449127,135.989572 L451.732339,135.989572 L451.732339,91.6170729 L444.449127,91.6170729 L444.449127,135.989572 Z M418.511865,91.6170729 L426.973718,116.022311 L427.084775,116.022311 L427.084775,91.6170729 L434.367987,91.6170729 L434.367987,135.989572 L427.869342,135.989572 L419.35196,112.151813 L419.239112,112.151813 L419.239112,135.989572 L411.9559,135.989572 L411.9559,91.6170729 L418.511865,91.6170729 Z M394.869192,126.829878 C394.869192,127.590154 394.690067,128.254032 394.3354,128.825149 C393.982524,129.38899 393.43082,129.694556 392.682079,129.732751 L389.26617,129.732751 C388.406371,129.732751 387.827798,129.441736 387.52866,128.852431 C387.229522,128.264945 387.079057,127.590154 387.079057,126.829878 L387.079057,101.058688 C387.079057,100.302049 387.202653,99.6017946 387.444471,98.9561053 C387.68629,98.3122348 388.27561,97.9866618 389.210641,97.9866618 L392.794927,97.9866618 C393.543669,97.9866618 394.072087,98.3122348 394.390929,98.9561053 C394.707979,99.6017946 394.869192,100.302049 394.869192,101.058688 L394.869192,126.829878 Z M401.844309,98.6996484 C401.711756,97.8829878 401.507554,97.1045229 401.22812,96.3678914 C400.946894,95.6276222 400.563567,94.9346429 400.078139,94.2907724 C399.071458,93.0012126 398.016413,92.1863708 396.913005,91.8444283 C395.809596,91.5024858 394.512733,91.3333333 393.020624,91.3333333 L388.986735,91.3333333 C387.491044,91.3333333 386.174477,91.5024858 385.037035,91.8444283 C383.89601,92.1863708 382.821262,93.0012126 381.814581,94.2907724 C381.291537,94.9346429 380.897462,95.6276222 380.637731,96.3678914 C380.374418,97.1045229 380.179172,97.8829878 380.048411,98.6996484 C379.91765,99.5144901 379.844209,100.331151 379.826296,101.145992 C379.806593,101.960834 379.797636,102.768401 379.797636,103.561416 L379.742108,124.840063 C379.742108,126.735298 379.890781,128.404996 380.188128,129.84552 C380.487267,131.289681 381.010311,132.493755 381.757261,133.457742 C382.504211,134.425367 383.503727,135.145629 384.755809,135.622166 C386.0061,136.095065 387.566276,136.333333 389.434547,136.333333 L393.18721,136.333333 C396.398917,136.333333 398.706043,135.372984 400.106799,133.457742 C401.507554,131.544319 402.19002,128.670547 402.150612,124.840063 L402.096875,103.561416 C402.096875,102.768401 402.086127,101.960834 402.068215,101.145992 C402.050302,100.331151 401.97507,99.5144901 401.844309,98.6996484 L401.844309,98.6996484 Z M357.106115,135.989572 L357.106115,98.4995756 L349.767375,98.4995756 L349.767375,91.6752759 L371.729858,91.6752759 L371.729858,98.4995756 L364.391118,98.4995756 L364.391118,135.989572 L357.106115,135.989572 Z M309.372956,112.037226 L317.944074,91.6170729 L326.180229,91.6170729 L316.374941,112.151813 L326.909267,135.989572 L318.280829,135.989572 L312.117147,118.637808 L309.372956,124.840063 L309.372956,135.989572 L302.087953,135.989572 L302.087953,91.6170729 L309.372956,91.6170729 L309.372956,112.037226 Z M270.769784,129.84552 C270.547669,128.404996 270.434821,126.735298 270.434821,124.840063 L270.490349,103.561416 C270.490349,102.768401 270.499306,101.960834 270.519009,101.145992 C270.536922,100.331151 270.612154,99.5144901 270.741124,98.6996484 C270.871885,97.8829878 271.068922,97.1045229 271.330444,96.3678914 C271.591966,95.6276222 271.98425,94.9346429 272.507294,94.2907724 C273.515766,93.0012126 274.588723,92.1936462 275.729748,91.8717109 C276.86719,91.5497757 278.183757,91.3897175 279.679448,91.3897175 L283.376583,91.3897175 C285.244854,91.3897175 286.756667,91.5297684 287.913812,91.8153268 C289.072749,92.1008852 289.979121,92.5828786 290.631135,93.2667637 C291.28494,93.9488299 291.723795,94.8600703 291.947701,95.9968473 C292.173399,97.1354432 292.284456,98.5559597 292.284456,100.265672 L292.284456,103.279496 L285.001244,106.011398 L285.001244,100.944101 C285.001244,100.265672 284.908099,99.6017946 284.72181,98.9561053 C284.533729,98.3122348 284.012476,97.9866618 283.152677,97.9866618 L279.903354,97.9866618 C278.970114,97.9866618 278.380794,98.3122348 278.137184,98.9561053 C277.895366,99.6017946 277.773561,100.302049 277.773561,101.058688 L277.773561,126.829878 C277.773561,127.590154 277.924026,128.264945 278.223164,128.852431 C278.520511,129.441736 279.099084,129.732751 279.958883,129.732751 L282.928771,129.732751 C283.786778,129.732751 284.358186,129.458106 284.63583,128.908815 C284.917056,128.357706 285.056773,127.70656 285.056773,126.944465 L285.056773,121.711653 L292.284456,124.441736 L292.284456,126.489754 C292.284456,128.274039 292.153695,129.789135 291.892173,131.042318 C291.632442,132.291864 291.173883,133.306778 290.520077,134.085243 C289.866272,134.861889 288.997517,135.431187 287.913812,135.793137 C286.830108,136.151449 285.486672,136.333333 283.879923,136.333333 L280.12726,136.333333 C278.033292,136.333333 276.363849,136.095065 275.111768,135.622166 C273.859686,135.145629 272.879873,134.425367 272.170539,133.457742 C271.461205,132.493755 270.995481,131.289681 270.769784,129.84552 L270.769784,129.84552 Z M244.997317,120.913181 L248.416808,104.301685 L248.529657,104.301685 L251.832717,120.913181 L244.997317,120.913181 Z M244.773411,91.6170729 L234.464783,135.989572 L242.084749,135.989572 L243.70941,127.741118 L253.177944,127.741118 L254.802605,135.989572 L262.422571,135.989572 L252.113943,91.6170729 L244.773411,91.6170729 Z M211.606675,129.161635 L211.606675,116.362435 L216.235258,116.362435 C217.250896,116.362435 218.00322,116.571602 218.49223,116.989936 C218.981241,117.406451 219.226641,118.259488 219.226641,119.549048 L219.226641,126.036862 C219.226641,127.362799 218.981241,128.217655 218.49223,128.595974 C218.00322,128.974294 217.250896,129.161635 216.235258,129.161635 L211.606675,129.161635 Z M211.606675,98.4995756 L216.066881,98.4995756 C217.080727,98.4995756 217.81693,98.6960107 218.268324,99.0925185 C218.719718,99.4872075 218.945416,100.322057 218.945416,101.598884 L218.945416,106.949921 C218.945416,108.266764 218.748378,109.110707 218.354304,109.485389 C217.958438,109.86007 217.252687,110.04923 216.235258,110.04923 L211.606675,110.04923 L211.606675,98.4995756 Z M221.397633,135.565781 C222.67121,135.280223 223.69043,134.783679 224.460666,134.085243 C225.22732,133.381351 225.759321,132.43919 226.06025,131.264217 C226.359388,130.087426 226.509853,128.623257 226.509853,126.878986 L226.509853,121.353341 C226.509853,118.732388 226.142647,116.806233 225.408236,115.569419 C224.673825,114.336243 223.556086,113.548684 222.049647,113.206742 C223.591911,112.828422 224.684572,111.984479 225.325839,110.67855 C225.963523,109.370802 226.285947,107.488299 226.285947,105.025585 L226.285947,100.82042 C226.285947,99.156178 226.126526,97.7356615 225.807684,96.5588699 C225.488842,95.3875349 224.937138,94.4380987 224.148989,93.7178368 C223.364423,93.0012126 222.314752,92.4792046 221.00535,92.1572693 C219.694157,91.8353341 218.065913,91.6752759 216.118827,91.6752759 L204.321672,91.6752759 L204.321672,135.989572 L216.566639,135.989572 C218.513725,135.989572 220.125848,135.849521 221.397633,135.565781 L221.397633,135.565781 Z M179.448412,135.989572 L179.448412,117.50285 L169.979878,91.6170729 L177.934808,91.6170729 L183.032697,109.139808 L183.145546,109.139808 L188.245227,91.6170729 L196.200157,91.6170729 L186.731623,117.561053 L186.731623,135.989572 L179.448412,135.989572 Z M154.571568,91.6170729 L161.85478,91.6170729 L161.85478,135.989572 L155.356135,135.989572 L146.840545,112.151813 L146.727696,112.151813 L146.727696,135.989572 L139.444484,135.989572 L139.444484,91.6170729 L146.00045,91.6170729 L154.460511,116.022311 L154.571568,116.022311 L154.571568,91.6170729 Z M122.07655,91.6170729 L129.359762,91.6170729 L129.359762,135.989572 L122.861117,135.989572 L114.343735,112.151813 L114.232678,112.151813 L114.232678,135.989572 L106.949466,135.989572 L106.949466,91.6170729 L113.505432,91.6170729 L121.965493,116.022311 L122.07655,116.022311 L122.07655,91.6170729 Z M85.0980399,98.4413726 L85.0980399,110.389354 L94.28893,110.389354 L94.28893,117.217291 L85.0980399,117.217291 L85.0980399,129.161635 L98.2654992,129.161635 L98.2654992,135.989572 L77.8148282,135.989572 L77.8148282,91.6170729 L97.5364615,91.6170729 L97.5364615,98.4413726 L85.0980399,98.4413726 Z M54.2832117,98.4413726 L58.7093839,98.4413726 C59.68024,98.4413726 60.3985302,98.6796411 60.8660457,99.156178 C61.3335613,99.6290772 61.5682147,100.493028 61.5682147,101.742573 L61.5682147,110.78768 C61.5682147,112.037226 61.3335613,112.912089 60.8660457,113.404996 C60.3985302,113.897902 59.68024,114.145265 58.7093839,114.145265 L54.2832117,114.145265 L54.2832117,98.4413726 Z M54.2832117,120.971384 L57.1975712,120.971384 C59.3631892,120.971384 61.193844,120.840427 62.6877443,120.573057 C64.1816446,120.307506 65.3853628,119.778222 66.3024814,118.981569 C67.2160176,118.183097 67.8698229,117.068146 68.262106,115.623984 C68.6543892,114.183461 68.8514264,112.306414 68.8514264,109.991027 L68.8514264,102.881169 C68.8514264,100.493028 68.6920054,98.5559597 68.3749546,97.0790591 C68.0561126,95.5967018 67.479331,94.4617437 66.6374447,93.6650903 C65.7973497,92.8666182 64.6294564,92.3373348 63.1373474,92.0736025 C61.6416558,91.8044137 59.7357687,91.6752759 57.4214771,91.6752759 L47,91.6170729 L47,135.989572 L54.2832117,135.989572 L54.2832117,120.971384 Z" id="Tonics-&amp;-Sodas"></path>
                </g>
            </g>
        </g>
    </g>
</svg>
