<svg xmlns="http://www.w3.org/2000/svg" xmlns:xlink="http://www.w3.org/1999/xlink" viewBox="0 0 776.5 40.79"><defs><style>.a{fill:url(#a);}.b{fill:url(#b);}.c{fill:url(#c);}.d{fill:url(#d);}.e{fill:url(#e);}</style><linearGradient id="a" x1="29.45" y1="720" x2="29.78" y2="720" gradientTransform="matrix(-257, 0, 0, 1, 7740.5, -695)" gradientUnits="userSpaceOnUse"><stop offset="0" stop-color="#a26343"/><stop offset="0.49" stop-color="#d2996c"/><stop offset="1" stop-color="#a26343"/></linearGradient><linearGradient id="b" x1="29.49" x2="29.74" gradientTransform="matrix(-256, 0, 0, 1, 7710.5, -705)" xlink:href="#a"/><linearGradient id="c" x1="29.45" x2="29.78" gradientTransform="matrix(-257, 0, 0, 1, 8256.5, -695)" xlink:href="#a"/><linearGradient id="d" x1="29.49" x2="29.74" gradientTransform="matrix(-257.5, 0, 0, 1, 8271.51, -705)" xlink:href="#a"/><linearGradient id="e" x1="28.88" y1="372.19" x2="29.87" y2="372.19" gradientTransform="matrix(227.21, 0, 0, -40.79, -6285.09, 15202.75)" xlink:href="#a"/></defs><title>bottom-lines</title><rect class="a" x="0.5" y="24" width="259" height="2"/><rect class="b" y="13.5" width="259" height="3"/><rect class="c" x="516.5" y="24" width="259" height="2"/><rect class="d" x="516" y="13.5" width="260.5" height="3"/><path class="e" d="M401.46,21.72a9.52,9.52,0,0,0,.85-1.36,11.83,11.83,0,0,0,.6-1.37c.16-.46.28-.86.38-1.23a5.17,5.17,0,0,0,.19-1.07,2.32,2.32,0,0,0-.1-.85.79.79,0,0,0-.49-.52.9.9,0,0,0-.31-.06,1,1,0,0,0-.32.05,2,2,0,0,0-.67.38,3.54,3.54,0,0,0-.64.7,5.34,5.34,0,0,0-.56,1l-1.25,2.94a3.44,3.44,0,0,0-.38,1.88.91.91,0,0,0,.65.79,1.28,1.28,0,0,0,1-.29,5.21,5.21,0,0,0,1-1Zm12.15-7.33a7.4,7.4,0,0,0-1.18,1.18,11.12,11.12,0,0,0-1,1.49,11.8,11.8,0,0,0-.74,1.52,7,7,0,0,0-.27.95,4,4,0,0,0-.09.91,1.84,1.84,0,0,0,.16.73.79.79,0,0,0,.51.45,1.41,1.41,0,0,0,.39,0,1,1,0,0,0,.21-.06c2.28-1,3.72-4.45,4.09-6.42a1.35,1.35,0,0,0-.11-1.08.68.68,0,0,0-.52-.26h-.11a2.29,2.29,0,0,0-1.31.6Zm38.06,9.43a6,6,0,0,1-1.14,2.08,5.61,5.61,0,0,1-1.84,1.41,6.33,6.33,0,0,1-2.32.6h-.52a8,8,0,0,1-1.13-.08,7.37,7.37,0,0,1-1.37-.34,6.6,6.6,0,0,1-1.12-.52,10.75,10.75,0,0,1-.9-.6,15.36,15.36,0,0,1-4.75-7l-.14-.39a3.31,3.31,0,0,0-1.25-2,1.37,1.37,0,0,0-.28-.11l-.16-.05-2.2,5.22h-.07l-2.69.21,1.35-3.58-.37.4a14.81,14.81,0,0,1-3.82,3,7.74,7.74,0,0,1-3.57,1.07,4.73,4.73,0,0,1-2.12-.32,3.71,3.71,0,0,1-1.24-.88,3.52,3.52,0,0,1-.52-.8l-.08-.15-.1.14c-1.16,1.57-2.3,2.61-4,2.61a1.6,1.6,0,0,1-1.22-.48,1.65,1.65,0,0,1-.29-1.36l.07-.5-.34.54c-.09.15-.21.34-.37.58a4,4,0,0,1-.81.85,4.24,4.24,0,0,1-1.24.67,3.25,3.25,0,0,1-1.67.08,2.1,2.1,0,0,1-1.34-.72A3.22,3.22,0,0,1,407.4,22a6.26,6.26,0,0,1,0-2.05,10.39,10.39,0,0,1,.64-2.39,9.26,9.26,0,0,1,.48-1l.09-.17h-.19a7,7,0,0,1-1.76-.1l-.12,0v.12a8.57,8.57,0,0,1-.12.91,12.59,12.59,0,0,1-.55,2A16.83,16.83,0,0,1,405,21a9.25,9.25,0,0,1-1.31,1.88,7.59,7.59,0,0,1-1.89,1.52,5.23,5.23,0,0,1-2.49.67h0a5.22,5.22,0,0,1-1.22-.14,2.3,2.3,0,0,1-1-.56,2.63,2.63,0,0,1-.54-.74,3.7,3.7,0,0,1-.34-1.07,5.2,5.2,0,0,1,0-1.4,7.29,7.29,0,0,1,.39-1.71l5.3-14.08A2,2,0,0,0,402,5a.73.73,0,0,0-.07-.45.61.61,0,0,0-.43-.29,1.83,1.83,0,0,0-.5,0h-.16l.23-.62h.06l5.46-.9-.07.18L401.92,13.8l.51-.34.33-.22a3.3,3.3,0,0,1,.64-.3,2.59,2.59,0,0,1,.73-.12,2.51,2.51,0,0,1,.78.12,2.24,2.24,0,0,1,.78.52l.14.12a3,3,0,0,0,1.13.57,4.53,4.53,0,0,0,2.75,0,9.12,9.12,0,0,0,1.84-.91,9.13,9.13,0,0,1,1.8-.9,6.39,6.39,0,0,1,2-.31h.11a2.18,2.18,0,0,1,2.34,2,4.23,4.23,0,0,1-.34,2.37l-1.09,2.53c-.07.19-.19.5-.4,1A.87.87,0,0,0,416.1,21a1,1,0,0,0,1.21-.18,4.84,4.84,0,0,0,1.54-2.43l.09-.26c1-2.93,1.93-5.47,5-6.72,1.09-.45,3.26-.93,4.49.12a2,2,0,0,1,.67,1.85,3.23,3.23,0,0,1-.16.88,2.56,2.56,0,0,1-.29.63l0,0h0L425.39,16l.24-.76,0,0a1.77,1.77,0,0,0,.87-.65,1.34,1.34,0,0,0,.13-1.39.87.87,0,0,0-.93-.33,2.25,2.25,0,0,0-1.34.69,8,8,0,0,0-2.29,5.27,2.15,2.15,0,0,0,.33,1.25,1.65,1.65,0,0,0,.94.64,2.5,2.5,0,0,0,.47.06,7,7,0,0,0,3.86-1.29,6.58,6.58,0,0,0,1.14-.87,21,21,0,0,0,4-4.58l0,0,0-.09c.18-.31.64-1.53,2.16-5.57l2.09-5.57a1.92,1.92,0,0,0,.11-.44.73.73,0,0,0-.07-.45.61.61,0,0,0-.43-.3,1.75,1.75,0,0,0-.5,0h-.16l.23-.62h.06l5.44-.9-.08.18-6.18,14.68h.16a3.62,3.62,0,0,0,1.1-.16,4.66,4.66,0,0,0,1.32-.64,4,4,0,0,0,.83-.79,2.57,2.57,0,0,0,.43-.77,1.16,1.16,0,0,0-.1-1.08.59.59,0,0,0-.51-.23h-.15l.21-.54H439l3.88-.33v.11a3.26,3.26,0,0,1-.38,1.7,6.09,6.09,0,0,1-1.27,1.64A8.16,8.16,0,0,1,439.49,15a9.55,9.55,0,0,1-2,.8l-.32.07.3.14A3.74,3.74,0,0,1,439,18.27l.21.53c1,2.44,2.31,5.77,4.77,6.87a3.72,3.72,0,0,0,4.79-1.19,3.85,3.85,0,0,0,.49-1.46,6,6,0,0,0,0-1.71,4.84,4.84,0,0,0-.5-1.55,4.74,4.74,0,0,0-.93-1.23,4.18,4.18,0,0,0-1.21-.8,3.2,3.2,0,0,0-1.29-.25h-.07a2.62,2.62,0,0,0-1.34.42,2.06,2.06,0,0,0-.77.91A2.75,2.75,0,0,0,443,20a3.42,3.42,0,0,0,.21,1l.05.14h-.37l0-.06-1.68-3.81v0a2.75,2.75,0,0,1,.33-.77,3.36,3.36,0,0,1,.77-.86,4.42,4.42,0,0,1,1.23-.67,5,5,0,0,1,1.68-.26,6.52,6.52,0,0,1,2.42.46,6.75,6.75,0,0,1,2.07,1.31,7.17,7.17,0,0,1,1.52,2,7.54,7.54,0,0,1,.75,2.66,6.72,6.72,0,0,1-.25,2.65ZM343.49,9,340,19.54l.17,0a9.28,9.28,0,0,0,2.66-.75,7.14,7.14,0,0,0,2-1.34,6.3,6.3,0,0,0,1.29-1.78,7.74,7.74,0,0,0,.65-2,4.57,4.57,0,0,0,0-1.38,4,4,0,0,0-.45-1.43A3.34,3.34,0,0,0,343.57,9ZM333,33a7.77,7.77,0,0,1-1.17.82,7.06,7.06,0,0,1-1.43.6,9.19,9.19,0,0,1-1.69.31l-.18,0,.23-.57h.06a2.8,2.8,0,0,0,1.06-.33,3.26,3.26,0,0,0,1-.92,9.59,9.59,0,0,0,.91-1.59c.3-.65.64-1.45,1-2.39l7.63-20-.17,0a7.88,7.88,0,0,0-1.65.36,7.39,7.39,0,0,0-1.57.73,6.27,6.27,0,0,0-1.3,1.07,3.64,3.64,0,0,0-.82,1.35,1.54,1.54,0,0,0-.07.39,1.44,1.44,0,0,0,0,.4.78.78,0,0,0,.18.34.52.52,0,0,0,.38.17h.05a.76.76,0,0,0,.6-.28,2.29,2.29,0,0,0,.34-.53l0-.06.54,0-1.67,4.46,0,0a2.82,2.82,0,0,1-1.35.14,2.66,2.66,0,0,1-1.33-.56,2.92,2.92,0,0,1-.89-1.3,4.24,4.24,0,0,1-.13-2.07,6.88,6.88,0,0,1,.86-2.34,7.45,7.45,0,0,1,1.9-2.12,11.14,11.14,0,0,1,3-1.63,15.72,15.72,0,0,1,4.24-.86,12.23,12.23,0,0,1,4,.24,6.93,6.93,0,0,1,2.63,1.24,4.83,4.83,0,0,1,1.48,2,6.93,6.93,0,0,1,.5,2.45,8.08,8.08,0,0,1-.69,3.51,8.52,8.52,0,0,1-2.13,2.89,11.07,11.07,0,0,1-3.42,2,15.22,15.22,0,0,1-4.54.93h-.07l-2,6.08a3.76,3.76,0,0,0-.23,1.79c.13.58.49.62.68.6l.48,0-.2.52H338l-1,.09a8.12,8.12,0,0,0-1,.16,3.82,3.82,0,0,0-.9.33,5.14,5.14,0,0,0-.92.61c-.48.37-.91.72-1.27,1Zm18.51-11.52-.17.4h.17a4.18,4.18,0,0,0,1.18-.25l.06,0,.37-.14.14-.07.17-.08a6.2,6.2,0,0,0,.88-.55,3.89,3.89,0,0,0,.72-.71,1.61,1.61,0,0,0,.34-.78,1.9,1.9,0,0,0,0-.31.75.75,0,0,0-.12-.36.69.69,0,0,0-.33-.28,1,1,0,0,0-.38-.07h-.16a2.48,2.48,0,0,0-1.31.73,6.17,6.17,0,0,0-1.16,1.6,8.06,8.06,0,0,0-.4.88Zm88,5.36.12.1-.14.07c-2.4,1.27-6.18,2.1-11.54,2.51l-38.09,3L389.28,34c-.36.86-.73,1.66-1.11,2.38a11.73,11.73,0,0,1-1.29,1.94h0a7.47,7.47,0,0,1-2.3,1.85,5.92,5.92,0,0,1-2.76.65h-.13a3.53,3.53,0,0,1-1.29-.24,3.22,3.22,0,0,1-1-.58,2.65,2.65,0,0,1-.6-.78,2.73,2.73,0,0,1-.27-.85,3.46,3.46,0,0,1,0-.9,3.83,3.83,0,0,1,.18-.73,2.94,2.94,0,0,1,.48-.86l0,0h0l2.07-.17.27,0-.18.2-.06.07a3,3,0,0,0-.64,1.31,1.94,1.94,0,0,0,0,.64,1.87,1.87,0,0,0,.24.68,1.39,1.39,0,0,0,.56.52,1.49,1.49,0,0,0,.92.11,3.12,3.12,0,0,0,1.45-.56,4.41,4.41,0,0,0,1-1.1,8.42,8.42,0,0,0,.8-1.53c.23-.57.48-1.2.72-1.86l.51-1.34-51.08,4a4.53,4.53,0,0,0-3,1l-.18.18V37.7c0-3.3,3.49-4,6.51-4.23l48.9-3.8,0-.06c.54-1.46,1.59-4.34,1.87-5.16l.12-.34-.28.22a3.19,3.19,0,0,1-.72.42,3.9,3.9,0,0,1-.85.24,2.37,2.37,0,0,1-.91,0,2.06,2.06,0,0,1-.81-.36,2,2,0,0,1-.59-.68l0-.11-.06-.11-.1.08c-1.17.93-3.39,2.53-5.16,2.84a2,2,0,0,1-2.37-1.11,3.88,3.88,0,0,1,0-2.51,7,7,0,0,1,.4-1.11c.17-.36.34-.71.51-1l.49-.91c.16-.28.29-.54.39-.77a2.74,2.74,0,0,0,.21-.76.61.61,0,0,0-.25-.61.8.8,0,0,0-.74.11,4.19,4.19,0,0,0-.95.75,8.4,8.4,0,0,0-1,1.25,10.08,10.08,0,0,0-.88,1.61l-2.17,5.1h-.06l-2.73.21.44-1.15-.28.19a8.26,8.26,0,0,1-4.27,1.79,3.23,3.23,0,0,1-.57,0,1.76,1.76,0,0,1-1.4-1.11,3.88,3.88,0,0,1,0-2.51,7.18,7.18,0,0,1,.4-1.11c.17-.36.34-.71.51-1l.49-.91c.16-.28.29-.54.39-.77a2.75,2.75,0,0,0,.21-.76.61.61,0,0,0-.25-.61.81.81,0,0,0-.74.12,4.09,4.09,0,0,0-.95.75,8.46,8.46,0,0,0-1,1.25,10,10,0,0,0-.88,1.61l-2.17,5.1h-.06l-2.73.21,1.16-3.07-.34.32a14.16,14.16,0,0,1-4.79,3.1,8,8,0,0,1-1.4.39l-.1,0-.06,0-.3.05h-.05l-.22,0a6.38,6.38,0,0,1-1.45,0,4.14,4.14,0,0,1-1-.25,3,3,0,0,1-.67-.38l-.49-.4a3.74,3.74,0,0,1-1-1.62,5.37,5.37,0,0,1-.19-2.27,9.83,9.83,0,0,1,.52-2.15,8.71,8.71,0,0,1,1.29-2.37,7.07,7.07,0,0,1,5.33-2.89H355a3.24,3.24,0,0,1,2.35.87,1.72,1.72,0,0,1,.41,1.48c-.45,3-3.56,4.55-6.26,4.55l-.49,0h-.1v.1a5.28,5.28,0,0,0-.07.89,1.8,1.8,0,0,0,1,1.88c.71.32,1.75.18,3.17-.44a22.16,22.16,0,0,0,6-4.59l.09-.09.86-2.2a2.55,2.55,0,0,0,.14-.5.79.79,0,0,0-.06-.48.56.56,0,0,0-.44-.27,2,2,0,0,0-.48,0l-.18,0,.23-.61h.05l3.5-1,0,.07a1.27,1.27,0,0,1,.13.3,3,3,0,0,1,.1.61,4.08,4.08,0,0,1,0,.65,5.45,5.45,0,0,1-.09.59c0,.11,0,.17.08.2l.1,0,.05-.09c.12-.22.23-.39.34-.55a5.59,5.59,0,0,1,.43-.53,4.6,4.6,0,0,1,.83-.76,5.07,5.07,0,0,1,1-.54,3.85,3.85,0,0,1,1-.28,2.49,2.49,0,0,1,.89,0,1.67,1.67,0,0,1,1.2,1.26,3.83,3.83,0,0,1-.33,2.51c-.23.52-.44,1-.64,1.36l-.55,1.11c-.17.35-.31.66-.43.94a3.34,3.34,0,0,0-.32,1.42.71.71,0,0,0,.3.56.78.78,0,0,0,.37.11h.15a3.24,3.24,0,0,0,1.89-1l.13-.11A8.77,8.77,0,0,0,373.08,22a14,14,0,0,0,1.41-3.1c.13-.35.25-.7.39-1a2.62,2.62,0,0,0,.14-.51.79.79,0,0,0-.06-.48.56.56,0,0,0-.44-.27,1.54,1.54,0,0,0-.48,0l-.18,0,.22-.61.05,0,3.5-1,0,.07a1.21,1.21,0,0,1,.13.3,2.93,2.93,0,0,1,.1.61,4.1,4.1,0,0,1,0,.66,5.46,5.46,0,0,1-.09.58c0,.11,0,.17.07.2l.1,0,.05-.09c.12-.22.23-.39.34-.55a5.59,5.59,0,0,1,.43-.53,4.58,4.58,0,0,1,.83-.76,5.08,5.08,0,0,1,1-.54,3.88,3.88,0,0,1,1-.28,2.32,2.32,0,0,1,.89,0,1.67,1.67,0,0,1,1.2,1.26,3.84,3.84,0,0,1-.33,2.51c-.23.52-.44,1-.64,1.37l-.55,1.1c-.17.35-.32.66-.43.94a4.58,4.58,0,0,0-.27.88,1.8,1.8,0,0,0,0,.75.54.54,0,0,0,.28.38c.6.28,1.71-.56,2.24-1l.1-.08a7.3,7.3,0,0,0,1.84-2c.14-.41.32-.86.53-1.31s.41-.87.67-1.34.46-.89.65-1.28a1.82,1.82,0,0,0,.27-1.4c-.12-.27-.42-.41-.94-.41h-.15l.17-.51h.07l4-.31v.1c0,.09,0,.22,0,.42a4.9,4.9,0,0,1-.31,1.55,8,8,0,0,1-.44,1.17c-.19.41-.39.81-.6,1.21s-.42.76-.61,1.1-.35.62-.45.83a1.84,1.84,0,0,0-.17,1,.72.72,0,0,0,.37.65,1,1,0,0,0,.84,0,2.69,2.69,0,0,0,.83-.52,4.74,4.74,0,0,0,.7-.81,4.11,4.11,0,0,0,.47-.88l2-6h.07l3.06-.24-.06.16L391,29.45l43.14-3.35a24.73,24.73,0,0,0,3.9-.59h.06l0,.05a12.87,12.87,0,0,0,1.32,1.34Zm60.34-9.51v4.28h2.4v-8.9h-2.13l-2.71,4.5h0l-2.72-4.5h-2.18v8.9h2.33V17.39h.07l2,3.31h.84l2-3.31Zm-13.94-.19a2.61,2.61,0,1,0-2.63,2.75,2.69,2.69,0,0,0,2.63-2.75Zm2.48,0a4.92,4.92,0,0,1-5.11,4.74,4.87,4.87,0,0,1-5.05-4.74,4.87,4.87,0,0,1,5.05-4.7,4.92,4.92,0,0,1,5.11,4.7Zm-17.73,2.75a2.67,2.67,0,0,1-2.78-2.73,2.64,2.64,0,0,1,2.71-2.73,4.65,4.65,0,0,1,2.71,1.08L474.7,14a7.45,7.45,0,0,0-4.44-1.53,4.73,4.73,0,1,0,.07,9.45A7.05,7.05,0,0,0,475,20.12l-1.45-1.53a4.58,4.58,0,0,1-2.9,1.35ZM459,20.56a1.46,1.46,0,0,0,2.9,0,1.46,1.46,0,0,0-2.9,0ZM323.79,19.24a1.39,1.39,0,0,0-1.44,1.32,1.46,1.46,0,0,0,2.9,0,1.4,1.4,0,0,0-1.46-1.32Zm-7.87-1.34h-.08l-1.53-5.14h-1.76L311,17.9h-.08l-1.43-5.14h-2.56l2.83,8.9H312L313.35,17h.08l1.4,4.63H317l2.85-8.9h-2.49ZM297.46,17l1.4,4.63H301l2.85-8.9h-2.49L300,17.9h-.08l-1.53-5.14h-1.76L295,17.9H295l-1.43-5.14H291l2.83,8.9H296L297.38,17Zm-9.56-4.26-2.85,8.9h-2.17L281.49,17h-.08L280,21.66h-2.18L275,12.77h2.56L279,17.9h.08l1.54-5.14h1.76l1.53,5.14H284l1.43-5.14Z" transform="translate(-0.5)"/></svg>