<?xml version="1.0" encoding="UTF-8"?>
<svg width="800px" height="809px" viewBox="0 0 800 809" version="1.1" xmlns="http://www.w3.org/2000/svg" xmlns:xlink="http://www.w3.org/1999/xlink">
    <!-- Generator: Sketch 47 (45396) - http://www.bohemiancoding.com/sketch -->
    <title>Page 1</title>
    <desc>Created with Sketch.</desc>
    <defs></defs>
    <g id="FINAL" stroke="none" stroke-width="1" fill="none" fill-rule="evenodd">
        <g id="HOME---FINAL" transform="translate(-400.000000, -3101.000000)" fill="#272828">
            <g id="EVENTS" transform="translate(398.000000, 3101.000000)">
                <path d="M402.838574,0 C199.06499,0 30.5115304,150.943396 2,346.331237 L2,346.331237 L7.03144654,346.331237 C38.8972746,346.331237 64.8930818,372.327044 64.8930818,404.192872 L64.8930818,404.192872 C64.8930818,436.050314 38.8972746,462.062893 7.03144654,462.062893 L7.03144654,462.062893 L2,462.062893 C30.5115304,657.442348 198.226415,808.385744 402,808.385744 L402,808.385744 C605.773585,808.385744 774.33543,658.280922 802,462.062893 L802,462.062893 C770.134172,462.062893 744.138365,436.050314 744.138365,404.192872 L744.138365,404.192872 C744.138365,372.327044 770.134172,346.331237 802,346.331237 L802,346.331237 C774.33543,150.943396 605.773585,0 402.838574,0 Z M146.234801,698.532495 C79.148847,640.67086 34.7127883,561.844864 18.7714885,476.310273 L18.7714885,476.310273 C53.1530398,470.448637 79.148847,441.098532 79.148847,405.031447 L79.148847,405.031447 C79.148847,368.972746 53.1530398,339.622642 18.7714885,333.752621 L18.7714885,333.752621 C34.7127883,247.371069 79.148847,168.553459 146.234801,110.691824 L146.234801,110.691824 C216.675052,48.6373166 308.071279,14.2557652 402.838574,14.2557652 L402.838574,14.2557652 C497.597484,14.2557652 588.163522,48.6373166 659.442348,110.691824 L659.442348,110.691824 C726.528302,169.392034 770.972746,248.218029 786.90566,334.591195 L786.90566,334.591195 C755.031447,342.138365 730.721174,370.649895 730.721174,405.031447 L730.721174,405.031447 C730.721174,439.412998 755.031447,467.916143 786.90566,475.471698 L786.90566,475.471698 C770.972746,561.844864 726.528302,640.67086 659.442348,699.371069 L659.442348,699.371069 C588.163522,760.587002 496.750524,794.968553 402.838574,794.968553 L402.838574,794.968553 C308.918239,794.968553 216.675052,760.587002 146.234801,698.532495 L146.234801,698.532495 Z M393.614256,48.6373166 C371.811321,60.3773585 361.748428,88.0503145 373.48847,110.691824 L373.48847,110.691824 C379.358491,123.27044 390.268344,131.656184 403.677149,136.687631 L403.677149,136.687631 C405.354298,137.526205 407.870021,137.526205 409.54717,138.36478 L409.54717,138.36478 C396.968553,142.557652 383.542977,145.073375 370.972746,145.073375 L370.972746,145.073375 C360.909853,145.073375 348.331237,137.526205 340.784067,120.754717 L340.784067,120.754717 C326.528302,89.7274633 296.339623,76.3102725 264.473795,88.0503145 L264.473795,88.0503145 C250.218029,93.081761 236.800839,93.081761 223.392034,93.081761 L223.392034,93.081761 L217.513627,93.081761 C216.675052,93.081761 215.836478,93.081761 215.836478,93.9203354 L215.836478,93.9203354 C215.836478,94.7589099 215.836478,94.7589099 216.675052,95.5974843 L216.675052,95.5974843 C219.190776,98.1132075 221.706499,99.7903564 224.222222,102.30608 L224.222222,102.30608 C234.285115,110.691824 242.67086,119.077568 250.218029,131.656184 L250.218029,131.656184 C259.442348,146.750524 266.989518,156.813417 284.599581,161.006289 L284.599581,161.006289 C300.532495,165.199161 317.303983,161.844864 332.398323,157.651992 L332.398323,157.651992 C341.622642,155.966457 352.532495,156.813417 360.071279,157.651992 L360.071279,157.651992 C397.807128,161.844864 432.188679,143.396226 465.731656,129.140461 L465.731656,129.140461 C501.798742,114.046122 549.580713,89.7274633 587.316562,114.884696 L587.316562,114.884696 C587.316562,114.884696 580.607966,120.754717 579.777778,121.593291 L579.777778,121.593291 C572.222222,126.624738 568.037736,125.786164 560.490566,121.593291 L560.490566,121.593291 C548.750524,115.72327 533.656184,121.593291 528.616352,132.494759 L528.616352,132.494759 C523.593291,144.234801 529.463312,158.490566 541.203354,163.522013 L541.203354,163.522013 C552.943396,168.553459 567.199161,161.844864 571.392034,150.104822 L571.392034,150.104822 C573.069182,145.073375 573.069182,140.041929 576.42348,135.849057 L576.42348,135.849057 C580.607966,130.81761 586.486373,129.979036 592.356394,130.81761 L592.356394,130.81761 C596.549266,130.81761 601.580713,134.163522 604.93501,137.526205 L604.93501,137.526205 C615.836478,149.266247 615.836478,168.553459 615.836478,183.647799 L615.836478,183.647799 C615.836478,191.194969 615.006289,198.742138 618.343816,205.450734 L618.343816,205.450734 C620.02935,207.966457 624.222222,216.352201 627.57652,216.352201 L627.57652,216.352201 C632.607966,215.513627 635.962264,193.702306 635.962264,188.679245 L635.962264,188.679245 C634.285115,187.002096 632.607966,184.486373 629.253669,182.809224 L629.253669,182.809224 C623.392034,163.522013 623.392034,140.880503 611.643606,123.27044 L611.643606,123.27044 C598.226415,103.983229 574.737945,90.5660377 551.266247,89.7274633 L551.266247,89.7274633 C532.81761,88.8888889 513.530398,95.5974843 495.920335,102.30608 L495.920335,102.30608 C484.180294,106.498952 473.278826,111.530398 461.530398,116.570231 L461.530398,116.570231 C436.373166,127.463312 400.322851,136.687631 384.389937,105.660377 L384.389937,105.660377 C380.197065,96.427673 379.358491,86.3731656 383.542977,77.148847 L383.542977,77.148847 C389.421384,63.7316562 406.192872,51.9916143 422.125786,57.0230608 L422.125786,57.0230608 C427.995807,59.5387841 433.027254,62.8930818 435.542977,67.9245283 L435.542977,67.9245283 C438.897275,72.9559748 439.735849,78.8343816 437.220126,83.8574423 L437.220126,83.8574423 C435.542977,88.0503145 431.350105,92.2431866 425.480084,93.9203354 L425.480084,93.9203354 C427.995807,92.2431866 429.66457,90.5660377 430.51153,88.0503145 L430.51153,88.0503145 C431.350105,85.5345912 431.350105,82.1802935 429.66457,78.8343816 L429.66457,78.8343816 C427.995807,75.4716981 425.480084,72.9559748 422.125786,72.1174004 L422.125786,72.1174004 C417.9413,71.278826 413.740042,71.278826 409.54717,72.9559748 L409.54717,72.9559748 C405.354298,74.6331237 402.838574,77.9874214 401.161426,81.3417191 L401.161426,81.3417191 C399.484277,85.5345912 399.484277,90.5660377 402,95.5974843 L402,95.5974843 C404.515723,100.628931 408.708595,103.983229 413.740042,105.660377 L413.740042,105.660377 C429.66457,111.530398 445.60587,101.467505 450.637317,88.8888889 L450.637317,88.8888889 C453.991614,80.4947589 453.991614,71.278826 448.960168,62.8930818 L448.960168,62.8930818 C441.72327,50.0964361 427.853249,43.572327 413.932914,43.572327 L413.932914,43.572327 C406.888889,43.572327 399.819706,45.2494759 393.614256,48.6373166 L393.614256,48.6373166 Z M208.289308,135.010482 C124.431866,177.777778 74.9559748,276.72956 81.6561845,330.398323 L81.6561845,330.398323 C81.6561845,332.075472 81.6561845,333.752621 82.5031447,335.429769 L82.5031447,335.429769 L83.3417191,335.429769 C89.21174,322.842767 121.916143,300.209644 126.1174,283.438155 L126.1174,283.438155 C137.010482,238.163522 142.880503,192.872117 168.037736,193.702306 L168.037736,193.702306 C165.513627,199.580713 163.006289,210.48218 161.32914,217.190776 L161.32914,217.190776 C157.974843,234.800839 159.651992,249.056604 164.683438,264.989518 L164.683438,264.989518 C175.584906,299.371069 199.06499,327.044025 173.907757,361.425577 L173.907757,361.425577 C159.651992,380.721174 131.979036,384.90566 123.593291,409.224319 L123.593291,409.224319 C109.337526,451.144654 100.113208,471.278826 85.0188679,486.373166 L85.0188679,486.373166 C126.947589,498.951782 168.87631,473.786164 185.656184,424.327044 L185.656184,424.327044 C193.194969,400.838574 196.549266,375.681342 198.226415,350.524109 L198.226415,350.524109 C213.320755,381.551363 226.737945,410.901468 229.253669,436.050314 L229.253669,436.050314 C230.930818,446.960168 224.222222,461.215933 207.450734,470.448637 L207.450734,470.448637 C177.262055,487.220126 166.360587,520.754717 180.616352,554.30608 L180.616352,554.30608 C186.486373,569.400419 188.163522,582.809224 189.002096,597.903564 L189.002096,597.903564 L189.840671,603.773585 C190.679245,604.612159 190.679245,605.450734 191.51782,605.450734 L191.51782,605.450734 C192.356394,605.450734 192.356394,605.450734 193.194969,604.612159 L193.194969,604.612159 C194.863732,601.257862 197.387841,598.742138 199.06499,596.226415 L199.06499,596.226415 C207.450734,585.324948 214.997904,575.27044 226.737945,566.87631 L226.737945,566.87631 C241.832285,555.974843 250.218029,546.750524 253.572327,527.463312 L253.572327,527.463312 C256.926625,509.853249 251.895178,492.243187 246.863732,477.987421 L246.863732,477.987421 C243.509434,468.763103 244.348008,457.023061 244.348008,448.637317 L244.348008,448.637317 C245.186583,407.54717 224.222222,372.327044 207.450734,337.106918 L207.450734,337.106918 C183.97065,287.631027 162.167715,240.67086 184.809224,205.450734 L184.809224,205.450734 C189.840671,217.190776 202.419287,232.285115 207.450734,240.67086 L207.450734,240.67086 C203.249476,244.025157 199.903564,249.056604 199.06499,254.926625 L199.06499,254.926625 C196.549266,268.343816 204.93501,280.922432 218.352201,283.438155 L218.352201,283.438155 C231.769392,286.792453 244.348008,278.406709 246.863732,264.989518 L246.863732,264.989518 C249.379455,251.572327 240.985325,238.993711 227.57652,236.477987 L227.57652,236.477987 C223.392034,235.639413 219.190776,235.639413 214.997904,237.316562 L214.997904,237.316562 C209.966457,228.092243 204.93501,218.867925 200.742138,209.63522 L200.742138,209.63522 C197.387841,201.257862 193.194969,192.872117 193.194969,183.647799 L193.194969,183.647799 C193.194969,166.87631 215.836478,151.781971 229.253669,146.750524 L229.253669,146.750524 C230.092243,142.557652 227.57652,134.163522 220.867925,129.979036 L220.867925,129.979036 C217.513627,129.979036 209.966457,134.163522 208.289308,135.010482 L208.289308,135.010482 Z M438.897275,175.262055 C412.901468,176.939203 389.421384,181.97065 370.134172,189.51782 L370.134172,189.51782 C350.84696,197.06499 334.075472,205.450734 320.658281,216.352201 L320.658281,216.352201 C307.24109,226.415094 297.178197,238.163522 289.631027,250.733753 L289.631027,250.733753 C282.083857,263.312369 277.890985,275.899371 275.375262,289.308176 L275.375262,289.308176 C273.698113,302.725367 273.698113,314.465409 277.890985,323.689727 L277.890985,323.689727 C281.245283,332.914046 286.27673,340.461216 292.985325,345.492662 L292.985325,345.492662 C299.69392,350.524109 307.24109,353.878407 315.626834,354.716981 L315.626834,354.716981 C324.012579,355.555556 331.559748,354.716981 339.945493,351.371069 L339.945493,351.371069 L368.457023,276.72956 L355.878407,277.568134 C354.192872,281.761006 352.532495,285.106918 350.008386,287.631027 L350.008386,287.631027 C347.492662,290.146751 344.976939,291.823899 340.784067,291.823899 L340.784067,291.823899 C339.106918,291.823899 337.429769,290.985325 335.752621,289.308176 L335.752621,289.308176 C334.914046,287.631027 334.075472,285.953878 333.236897,284.27673 L333.236897,284.27673 C332.398323,282.599581 332.398323,280.083857 332.398323,278.406709 L332.398323,278.406709 C332.398323,276.72956 333.236897,274.213836 333.236897,272.536688 L333.236897,272.536688 C335.752621,264.989518 339.945493,258.280922 345.807128,251.572327 L345.807128,251.572327 C351.685535,244.863732 358.39413,239.832285 366.779874,234.800839 L366.779874,234.800839 C374.33543,229.777778 382.712788,226.415094 391.928721,223.060797 L391.928721,223.060797 C401.161426,220.545073 409.54717,218.02935 417.9413,217.190776 L417.9413,217.190776 L297.178197,535.849057 C291.308176,550.943396 286.27673,564.352201 281.245283,574.42348 L281.245283,574.42348 C276.213836,584.486373 272.020964,592.872117 266.989518,599.580713 L266.989518,599.580713 C261.958071,606.289308 256.926625,611.320755 251.895178,613.836478 L251.895178,613.836478 C246.863732,617.190776 240.155136,618.859539 233.446541,618.859539 L233.446541,618.859539 L228.415094,631.446541 C241.832285,630.607966 252.733753,628.930818 261.958071,625.57652 L261.958071,625.57652 C271.18239,623.060797 278.721174,619.706499 285.438155,615.522013 L285.438155,615.522013 C292.146751,611.320755 298.863732,607.136268 304.725367,602.08805 L304.725367,602.08805 C309.756813,597.903564 316.457023,592.872117 324.012579,586.993711 L324.012579,586.993711 C329.044025,582.809224 334.075472,579.454927 338.268344,576.939203 L338.268344,576.939203 C342.461216,574.42348 347.492662,572.737945 352.532495,571.907757 L352.532495,571.907757 C357.555556,571.069182 362.587002,570.230608 367.618449,569.400419 L367.618449,569.400419 C372.649895,568.553459 378.519916,568.553459 385.228512,567.714885 L385.228512,567.714885 L389.421384,555.974843 L379.358491,556.813417 C374.33543,556.813417 371.811321,554.30608 370.134172,548.427673 L370.134172,548.427673 C368.457023,542.557652 370.134172,533.333333 373.48847,520.754717 L373.48847,520.754717 L404.515723,424.327044 C432.188679,422.641509 456.507338,417.610063 478.310273,409.224319 L478.310273,409.224319 C500.113208,400.838574 518.561845,389.937107 533.656184,376.519916 L533.656184,376.519916 C548.750524,363.102725 560.490566,347.169811 568.037736,329.559748 L568.037736,329.559748 C575.584906,311.949686 579.777778,292.662474 578.939203,272.536688 L578.939203,272.536688 C578.939203,258.280922 575.584906,244.863732 570.553459,232.285115 L570.553459,232.285115 C565.522013,219.706499 557.136268,208.805031 546.234801,199.580713 L546.234801,199.580713 C535.333333,190.356394 521.077568,183.647799 503.467505,179.454927 L503.467505,179.454927 C490.402516,176.343816 475.039832,174.616352 457.706499,174.616352 L457.706499,174.616352 C451.668763,174.616352 445.396226,174.825996 438.897275,175.262055 L438.897275,175.262055 Z M473.278826,216.352201 C484.180294,217.190776 492.566038,220.545073 500.113208,225.57652 L500.113208,225.57652 C506.821803,230.607966 512.691824,236.477987 516.046122,244.025157 L516.046122,244.025157 C519.400419,251.572327 521.916143,258.280922 522.754717,266.666667 L522.754717,266.666667 C523.593291,274.213836 523.593291,281.761006 521.916143,288.469602 L521.916143,288.469602 C520.230608,299.371069 516.884696,310.272537 511.844864,321.174004 L511.844864,321.174004 C506.821803,331.236897 500.113208,341.29979 491.727463,349.685535 L491.727463,349.685535 C483.341719,358.071279 473.278826,364.779874 460.70021,370.649895 L460.70021,370.649895 C448.121593,376.519916 434.712788,380.721174 418.771488,382.381551 L418.771488,382.381551 L473.278826,216.352201 Z M660.280922,183.647799 L659.442348,189.51782 C656.926625,203.773585 655.249476,217.190776 647.69392,231.438155 L647.69392,231.438155 C630.930818,263.312369 640.155136,296.855346 668.666667,316.142558 L668.666667,316.142558 C684.599581,326.205451 689.631027,340.461216 687.945493,351.371069 L687.945493,351.371069 C679.559748,397.484277 646.863732,436.050314 625.052411,478.834382 L625.052411,478.834382 C622.545073,448.637317 612.473795,419.287212 578.100629,408.385744 L578.100629,408.385744 C566.352201,405.031447 554.620545,405.031447 543.719078,409.224319 L543.719078,409.224319 C532.81761,414.255765 525.278826,422.641509 521.916143,433.542977 L521.916143,433.542977 C519.400419,442.767296 520.230608,452.830189 523.593291,461.215933 L523.593291,461.215933 C524.431866,462.893082 525.278826,463.731656 526.109015,465.408805 L526.109015,465.408805 C530.301887,472.955975 536.171908,478.834382 544.557652,481.341719 L544.557652,481.341719 C552.104822,483.857442 560.490566,483.857442 568.037736,481.341719 L568.037736,481.341719 C575.584906,477.987421 580.607966,472.955975 583.132075,465.408805 L583.132075,465.408805 C586.486373,453.668763 581.454927,439.412998 568.037736,434.381551 L568.037736,434.381551 C563.844864,432.712788 558.813417,432.712788 554.620545,434.381551 L554.620545,434.381551 C550.427673,436.050314 547.920335,439.412998 546.234801,443.60587 L546.234801,443.60587 C544.557652,446.960168 545.396226,450.314465 547.073375,453.668763 L547.073375,453.668763 C548.750524,456.192872 552.104822,459.530398 555.459119,460.377358 L555.459119,460.377358 C557.966457,462.062893 561.32914,461.215933 563.844864,460.377358 L563.844864,460.377358 C567.199161,459.530398 568.884696,457.023061 569.714885,454.507338 L569.714885,454.507338 C570.553459,452.830189 570.553459,451.144654 569.714885,448.637317 L569.714885,448.637317 C573.069182,452.830189 573.907757,457.861635 572.222222,462.062893 L572.222222,462.062893 C570.553459,467.085954 567.199161,470.448637 562.167715,472.1174 L562.167715,472.1174 C557.136268,473.786164 552.104822,473.786164 547.073375,472.1174 L547.073375,472.1174 C539.534591,469.601677 535.333333,462.893082 533.656184,457.861635 L533.656184,457.861635 C531.148847,451.991614 531.148847,444.444444 532.81761,438.574423 L532.81761,438.574423 C535.333333,431.027254 541.203354,424.327044 549.580713,420.964361 L549.580713,420.964361 C565.522013,413.417191 584.809224,420.964361 595.702306,433.542977 L595.702306,433.542977 C605.773585,445.283019 609.127883,460.377358 609.127883,474.633124 L609.127883,474.633124 C609.127883,498.113208 604.08805,515.72327 603.257862,515.72327 L603.257862,515.72327 C630.092243,523.27044 654.410901,519.916143 678.72956,502.314465 L678.72956,502.314465 C699.69392,487.220126 713.958071,462.893082 713.111111,436.897275 L713.111111,436.897275 L713.111111,432.712788 C712.272537,431.865828 712.272537,431.865828 713.111111,429.350105 L713.111111,429.350105 C708.079665,435.220126 706.402516,442.767296 698.016771,448.637317 L698.016771,448.637317 C683.761006,458.70021 658.603774,469.601677 634.285115,492.243187 L634.285115,492.243187 C640.993711,477.987421 649.379455,462.893082 658.603774,447.798742 L658.603774,447.798742 C677.890985,414.255765 701.371069,381.551363 703.048218,341.29979 L703.048218,341.29979 C703.048218,333.752621 703.886792,322.012579 707.249476,312.78826 L707.249476,312.78826 C713.958071,296.855346 719.828092,279.245283 718.142558,262.473795 L718.142558,262.473795 C716.465409,244.025157 708.079665,233.962264 693.815514,222.222222 L693.815514,222.222222 C682.092243,212.997904 675.375262,202.096436 668.666667,191.194969 L668.666667,191.194969 C666.989518,188.679245 665.312369,185.324948 663.63522,182.809224 L663.63522,182.809224 C663.63522,181.97065 662.78826,181.97065 661.958071,181.97065 L661.958071,181.97065 C661.127883,181.97065 660.280922,182.809224 660.280922,183.647799 L660.280922,183.647799 Z M440.574423,569.400419 C440.574423,586.163522 452.314465,602.08805 452.314465,616.352201 L452.314465,616.352201 C452.314465,621.392034 449.807128,628.930818 445.60587,636.477987 L445.60587,636.477987 C441.412998,640.67086 437.220126,644.025157 433.865828,648.209644 L433.865828,648.209644 C394.45283,690.146751 356.716981,728.72956 313.949686,720.343816 L313.949686,720.343816 C322.33543,711.111111 333.236897,694.331237 339.106918,686.792453 L339.106918,686.792453 C344.138365,690.146751 350.008386,690.993711 355.878407,690.146751 L355.878407,690.146751 C369.295597,687.631027 378.519916,675.052411 376.004193,661.63522 L376.004193,661.63522 C373.48847,648.209644 360.909853,639.823899 347.492662,642.348008 L347.492662,642.348008 C334.075472,644.872117 324.851153,657.442348 327.366876,670.859539 L327.366876,670.859539 C328.205451,675.052411 329.8826,678.406709 332.398323,681.761006 L332.398323,681.761006 C321.496855,693.501048 312.272537,701.886792 298.016771,710.272537 L298.016771,710.272537 C297.178197,710.272537 280.406709,719.496855 257.765199,711.949686 L257.765199,711.949686 C228.415094,701.886792 201.589099,681.761006 186.486373,654.926625 L186.486373,654.926625 C168.037736,622.222222 163.853249,605.450734 157.974843,545.920335 L157.974843,545.920335 L157.974843,545.073375 C146.234801,586.163522 151.266247,635.639413 178.100629,671.698113 L178.100629,671.698113 C207.450734,711.949686 251.056604,737.937107 313.949686,737.937107 L313.949686,737.937107 C321.496855,737.937107 329.8826,737.106918 337.429769,735.429769 L337.429769,735.429769 C342.461216,735.429769 345.807128,734.599581 347.492662,733.752621 L347.492662,733.752621 C364.264151,737.106918 396.968553,738.784067 406.192872,739.622642 L406.192872,739.622642 C406.192872,743.815514 407.031447,747.169811 409.54717,751.371069 L409.54717,751.371069 C416.255765,763.102725 431.350105,767.295597 443.090147,760.587002 L443.090147,760.587002 C454.830189,753.878407 459.014675,739.622642 452.314465,727.8826 L452.314465,727.8826 C445.60587,716.142558 430.51153,711.949686 418.771488,718.658281 L418.771488,718.658281 C413.740042,722.012579 409.54717,727.044025 407.870021,732.067086 L407.870021,732.067086 C403.677149,732.067086 381.874214,727.8826 369.295597,724.528302 L369.295597,724.528302 C391.098532,711.949686 410.385744,693.501048 429.66457,674.213836 L429.66457,674.213836 C440.574423,670.859539 454.830189,672.536688 466.570231,675.899371 L466.570231,675.899371 C490.050314,681.761006 503.467505,706.079665 530.301887,705.249476 L530.301887,705.249476 C575.584906,703.563941 598.226415,705.249476 618.343816,713.63522 L618.343816,713.63522 C615.006289,670.020964 575.584906,639.823899 521.916143,642.348008 L521.916143,642.348008 C495.920335,643.186583 470.763103,649.056604 446.444444,656.595388 L446.444444,656.595388 C470.763103,631.446541 493.412998,607.966457 516.046122,597.06499 L516.046122,597.06499 C526.109015,592.872117 542.041929,593.710692 557.136268,605.450734 L557.136268,605.450734 C585.656184,627.253669 620.867925,625.57652 647.69392,600.427673 L647.69392,600.427673 C659.442348,589.51782 672.859539,583.656184 686.27673,576.939203 L686.27673,576.939203 L691.308176,574.42348 C692.146751,574.42348 692.146751,573.584906 692.146751,572.737945 L692.146751,572.737945 C692.146751,571.907757 691.308176,571.069182 692.985325,567.714885 L692.985325,567.714885 C689.631027,566.87631 686.27673,566.037736 682.922432,565.199161 L682.922432,565.199161 C669.505241,561.844864 656.926625,559.32914 644.356394,550.943396 L644.356394,550.943396 C627.57652,540.880503 615.836478,535.849057 596.549266,540.050314 L596.549266,540.050314 C579.777778,544.234801 563.844864,554.30608 550.427673,565.199161 L550.427673,565.199161 C542.872117,571.069182 531.979036,575.27044 523.593291,577.786164 L523.593291,577.786164 C504.30608,583.656184 485.857442,597.903564 468.247379,613.836478 L468.247379,613.836478 C482.494759,590.356394 495.081761,564.352201 496.750524,539.203354 L496.750524,539.203354 C497.597484,522.431866 501.798742,509.853249 510.184486,495.597484 L510.184486,495.597484 C469.924528,505.651992 440.574423,535.849057 440.574423,569.400419 L440.574423,569.400419 Z" id="Page-1"></path>
            </g>
        </g>
    </g>
</svg>