<svg xmlns="http://www.w3.org/2000/svg" xmlns:xlink="http://www.w3.org/1999/xlink" viewBox="0 0 63.42 63.41"><defs><style>.a{fill:url(#a);}.b{fill:url(#b);}.c{fill:url(#c);}.d{fill:url(#d);}.e{fill:url(#e);}.f{fill:url(#f);}.g{fill:url(#g);}.h{fill:url(#h);}.i{fill:url(#i);}.j{fill:url(#j);}.k{fill:url(#k);}.l{fill:url(#l);}.m{fill:url(#m);}.n{fill:url(#n);}.o{fill:url(#o);}.p{fill:url(#p);}.q{fill:url(#q);}.r{fill:url(#r);}.s{fill:url(#s);}.t{fill:url(#t);}.u{fill:url(#u);}.v{fill:url(#v);}.w{fill:url(#w);}.x{fill:url(#x);}.y{fill:url(#y);}.z{fill:url(#z);}.aa{fill:url(#aa);}.ab{fill:url(#ab);}.ac{fill:url(#ac);}.ad{fill:url(#ad);}.ae{fill:url(#ae);}.af{fill:url(#af);}.ag{fill:url(#ag);}.ah{fill:url(#ah);}.ai{fill:url(#ai);}.aj{fill:url(#aj);}.ak{fill:url(#ak);}.al{fill:url(#al);}.am{fill:url(#am);}.an{fill:url(#an);}.ao{fill:url(#ao);}.ap{fill:url(#aq);}.aq{fill:url(#ar);}.ar{fill:url(#as);}.as{fill:url(#at);}.at{fill:url(#au);}.au{fill:url(#av);}.av{fill:url(#aw);}.aw{fill:url(#ax);}.ax{fill:url(#bg);}</style><linearGradient id="a" x1="-2.21" y1="32.89" x2="61.15" y2="32.89" gradientUnits="userSpaceOnUse"><stop offset="0.01" stop-color="#e3a474"/><stop offset="0.25" stop-color="#95593b"/><stop offset="0.41" stop-color="#e8a676"/><stop offset="0.62" stop-color="#cd976b"/><stop offset="0.66" stop-color="#eeb27c"/><stop offset="0.79" stop-color="#ecb57c"/><stop offset="0.93" stop-color="#a15d38"/><stop offset="1" stop-color="#d59467"/></linearGradient><linearGradient id="b" x1="-2.21" y1="32.98" x2="61.15" y2="32.98" xlink:href="#a"/><linearGradient id="c" x1="-2.21" y1="44.8" x2="61.15" y2="44.8" xlink:href="#a"/><linearGradient id="d" x1="-2.21" y1="30.23" x2="61.15" y2="30.23" xlink:href="#a"/><linearGradient id="e" x1="-2.21" y1="31.01" x2="61.15" y2="31.01" xlink:href="#a"/><linearGradient id="f" x1="-2.21" y1="18.61" x2="61.15" y2="18.61" xlink:href="#a"/><linearGradient id="g" x1="-2.21" y1="34.71" x2="61.15" y2="34.71" xlink:href="#a"/><linearGradient id="h" x1="-3.57" y1="30.07" x2="59.8" y2="30.07" xlink:href="#a"/><linearGradient id="i" x1="-3.57" y1="26.6" x2="59.8" y2="26.6" xlink:href="#a"/><linearGradient id="j" x1="-3.57" y1="22.95" x2="59.8" y2="22.95" xlink:href="#a"/><linearGradient id="k" x1="-3.57" y1="19.32" x2="59.8" y2="19.32" xlink:href="#a"/><linearGradient id="l" x1="-2.21" y1="18.34" x2="61.15" y2="18.34" xlink:href="#a"/><linearGradient id="m" x1="-2.21" y1="15.94" x2="61.15" y2="15.94" xlink:href="#a"/><linearGradient id="n" x1="-2.21" y1="13.19" x2="61.15" y2="13.19" xlink:href="#a"/><linearGradient id="o" x1="-3.57" y1="9.95" x2="59.8" y2="9.95" xlink:href="#a"/><linearGradient id="p" x1="-3.57" y1="7.9" x2="59.8" y2="7.9" xlink:href="#a"/><linearGradient id="q" x1="-2.21" y1="8.52" x2="61.15" y2="8.52" xlink:href="#a"/><linearGradient id="r" x1="-3.57" y1="6.9" x2="59.8" y2="6.9" xlink:href="#a"/><linearGradient id="s" x1="-3.57" y1="7.02" x2="59.8" y2="7.02" xlink:href="#a"/><linearGradient id="t" x1="-2.21" y1="8.72" x2="61.15" y2="8.72" xlink:href="#a"/><linearGradient id="u" x1="-2.21" y1="9.68" x2="61.15" y2="9.68" xlink:href="#a"/><linearGradient id="v" x1="-2.21" y1="12.31" x2="61.15" y2="12.31" xlink:href="#a"/><linearGradient id="w" x1="-3.57" y1="12.92" x2="59.8" y2="12.92" xlink:href="#a"/><linearGradient id="x" x1="-2.21" y1="16.68" x2="61.15" y2="16.68" xlink:href="#a"/><linearGradient id="y" x1="-2.21" y1="21.1" x2="61.15" y2="21.1" xlink:href="#a"/><linearGradient id="z" x1="-2.21" y1="24.31" x2="61.15" y2="24.31" xlink:href="#a"/><linearGradient id="aa" x1="-2.21" y1="27.71" x2="61.15" y2="27.71" xlink:href="#a"/><linearGradient id="ab" x1="-2.21" y1="31.41" x2="61.15" y2="31.41" xlink:href="#a"/><linearGradient id="ac" x1="-2.21" y1="34.8" x2="61.15" y2="34.8" xlink:href="#a"/><linearGradient id="ad" x1="-2.21" y1="51.19" x2="61.15" y2="51.19" xlink:href="#a"/><linearGradient id="ae" x1="-3.57" y1="51.65" x2="59.8" y2="51.65" xlink:href="#a"/><linearGradient id="af" x1="-3.57" y1="52.87" x2="59.8" y2="52.87" xlink:href="#a"/><linearGradient id="ag" x1="-3.57" y1="54.45" x2="59.8" y2="54.45" xlink:href="#a"/><linearGradient id="ah" x1="-2.21" y1="57.51" x2="61.15" y2="57.51" xlink:href="#a"/><linearGradient id="ai" x1="-3.57" y1="56.69" x2="59.8" y2="56.69" xlink:href="#a"/><linearGradient id="aj" x1="-2.21" y1="58.02" x2="61.15" y2="58.02" xlink:href="#a"/><linearGradient id="ak" x1="-2.21" y1="57.25" x2="61.15" y2="57.25" xlink:href="#a"/><linearGradient id="al" x1="-2.21" y1="56.24" x2="61.15" y2="56.24" xlink:href="#a"/><linearGradient id="am" x1="-3.57" y1="53.28" x2="59.8" y2="53.28" xlink:href="#a"/><linearGradient id="an" x1="-2.21" y1="53.39" x2="61.15" y2="53.39" gradientTransform="translate(40.28 -17.83) rotate(35.83)" xlink:href="#a"/><linearGradient id="ao" x1="-3.57" y1="50.33" x2="59.8" y2="50.33" xlink:href="#a"/><linearGradient id="aq" x1="-2.21" y1="40.08" x2="61.15" y2="40.08" xlink:href="#a"/><linearGradient id="ar" x1="-2.21" y1="42.97" x2="61.15" y2="42.97" xlink:href="#a"/><linearGradient id="as" x1="-2.21" y1="45.73" x2="61.15" y2="45.73" xlink:href="#a"/><linearGradient id="at" x1="-2.21" y1="48.32" x2="61.15" y2="48.32" xlink:href="#a"/><linearGradient id="au" x1="-2.21" y1="39.28" x2="61.15" y2="39.28" xlink:href="#a"/><linearGradient id="av" x1="-2.21" y1="41.84" x2="61.15" y2="41.84" xlink:href="#a"/><linearGradient id="aw" x1="-2.21" y1="44.29" x2="61.15" y2="44.29" xlink:href="#a"/><linearGradient id="ax" x1="-2.21" y1="46.59" x2="61.15" y2="46.59" xlink:href="#a"/><linearGradient id="bg" x1="-2.21" y1="32.98" x2="61.2" y2="32.98" xlink:href="#a"/></defs><title>pb-footer-monogram</title><path class="a" d="M33.21,34A12.77,12.77,0,0,0,37,33.18a9.33,9.33,0,0,0,2.9-1.72A7.18,7.18,0,0,0,41.76,29a6.83,6.83,0,0,0,.58-3,5.92,5.92,0,0,0-.43-2.09,4.12,4.12,0,0,0-1.27-1.68,5.91,5.91,0,0,0-2.25-1.06A10.36,10.36,0,0,0,35,21a13.33,13.33,0,0,0-3.58.72,9.45,9.45,0,0,0-2.57,1.38,6.36,6.36,0,0,0-1.61,1.81,5.8,5.8,0,0,0-.73,2,3.64,3.64,0,0,0,.11,1.78,2.51,2.51,0,0,0,.78,1.13,2.3,2.3,0,0,0,1.16.49,2.45,2.45,0,0,0,1.25-.16l1.47-3.91-.65.05a2,2,0,0,1-.31.52.55.55,0,0,1-.47.2.34.34,0,0,1-.26-.12.59.59,0,0,1-.13-.25,1.06,1.06,0,0,1,0-.31,1.18,1.18,0,0,1,.05-.31,3,3,0,0,1,.67-1.1,5.16,5.16,0,0,1,1.07-.88,6.09,6.09,0,0,1,1.3-.61,6.57,6.57,0,0,1,1.37-.3L27.57,39.83q-.45,1.2-.83,2A8.09,8.09,0,0,1,26,43.15a2.61,2.61,0,0,1-.79.75,2.29,2.29,0,0,1-1,.28l-.27.66a8.31,8.31,0,0,0,1.73-.29A5.91,5.91,0,0,0,26.92,44a6.5,6.5,0,0,0,1-.7q.46-.4,1.07-.87a4.31,4.31,0,0,1,.75-.5,3.15,3.15,0,0,1,.74-.27,6.25,6.25,0,0,1,.79-.13l.91-.08.23-.62-.54,0q-.38,0-.48-.44a3.13,3.13,0,0,1,.2-1.46Zm3.54-10.8a2.78,2.78,0,0,1,1.38.49,2.82,2.82,0,0,1,.84,1,3.33,3.33,0,0,1,.36,1.17,3.76,3.76,0,0,1,0,1.13,6.28,6.28,0,0,1-.54,1.7,5.24,5.24,0,0,1-1.06,1.47,5.86,5.86,0,0,1-1.62,1.1,7.57,7.57,0,0,1-2.2.63Z" transform="translate(-1.35 -1.28)"/><path class="b" d="M53.93,36h0a3,3,0,1,1,0-6.08h0a21.08,21.08,0,0,0-41.73,0h.24a3,3,0,0,1,0,6.08H12.2a21.08,21.08,0,0,0,41.73,0Zm-7.48,12.3A20.36,20.36,0,0,1,13,36.7a3.77,3.77,0,0,0,0-7.43,20.36,20.36,0,0,1,40,0,3.76,3.76,0,0,0,0,7.35A20.36,20.36,0,0,1,46.44,48.32Z" transform="translate(-1.35 -1.28)"/><path class="c" d="M47.56,41.51a6.41,6.41,0,0,1-2-.76,3,3,0,0,0-2.47-.58,6.18,6.18,0,0,0-2.42,1.29,4.94,4.94,0,0,1-1.42.67A8.58,8.58,0,0,0,36.37,44a9,9,0,0,0,1.47-3.91,4.58,4.58,0,0,1,.7-2.26c-2.12.52-3.65,2.11-3.64,3.85,0,.87.62,1.66.62,2.43a2.35,2.35,0,0,1-.34,1.05l-.59.61c-2.06,2.15-4,4.18-6.26,3.74a20.28,20.28,0,0,0,1.33-1.75,1.26,1.26,0,1,0-.61-.85,1.23,1.23,0,0,0,.28.58A6.88,6.88,0,0,1,27.56,49a2.83,2.83,0,0,1-2.08.08,6.75,6.75,0,0,1-3.72-3c-1-1.74-1.17-2.61-1.49-5.7a.17.17,0,0,0,0-.05,7.85,7.85,0,0,0,1.06,6.6,8.44,8.44,0,0,0,7.1,3.44,6.69,6.69,0,0,0,1.22-.11,3.64,3.64,0,0,0,.52-.1c.88.2,2.6.26,3.07.32a1.23,1.23,0,0,0,.16.63,1.28,1.28,0,0,0,1.74.47,1.26,1.26,0,0,0,.49-1.72,1.28,1.28,0,0,0-2.31.21c-.21,0-1.33-.23-2-.41A15.34,15.34,0,0,0,34.43,47a3.54,3.54,0,0,1,1.94.07c1.23.32,1.95,1.58,3.33,1.53,2.34-.09,3.52,0,4.57.44-.18-2.26-2.25-3.83-5-3.71a15.12,15.12,0,0,0-3.92.76A14.81,14.81,0,0,1,39,43a2.07,2.07,0,0,1,2.14.42,3.48,3.48,0,0,0,4.71-.26,7.19,7.19,0,0,1,2-1.22l.28-.13a.09.09,0,0,0,.05-.09.09.09,0,0,0-.07-.08Z" transform="translate(-1.35 -1.28)"/><path class="d" d="M48.69,29.8a4.65,4.65,0,0,1,.24-1.5,5.84,5.84,0,0,0,.56-2.61,2.79,2.79,0,0,0-1.26-2.11A6.09,6.09,0,0,1,46.92,22l-.28-.44a.09.09,0,0,0-.1,0,.09.09,0,0,0-.07.08l0,.3a6.82,6.82,0,0,1-.61,2.21,3.26,3.26,0,0,0,1.09,4.42,2,2,0,0,1,1,1.86c-.42,2.41-2.11,4.43-3.26,6.64-.1-1.56-.63-3.12-2.43-3.68a2.57,2.57,0,0,0-1.79,0,2,2,0,0,0-1.15,1.25A2.13,2.13,0,0,0,39.36,36a2,2,0,0,0,.11.22,1.84,1.84,0,0,0,2.22.83,1.29,1.29,0,0,0,.81-.83,1.31,1.31,0,0,0-.79-1.6,1,1,0,0,0-.69,0,.75.75,0,0,0-.44.47.66.66,0,0,0,.06.52.82.82,0,0,0,.42.36.61.61,0,0,0,.45,0,.52.52,0,0,0,.29-.31.55.55,0,0,0,0-.32.76.76,0,0,1,.11.68.81.81,0,0,1-.52.52,1.17,1.17,0,0,1-1.5-.75,1.65,1.65,0,0,1,0-1,1.52,1.52,0,0,1,.86-.93,2.16,2.16,0,0,1,2.41.67,3.19,3.19,0,0,1,.68,2.13,5.15,5.15,0,0,1-.3,2.12,4.28,4.28,0,0,0,3.94-.69,4.13,4.13,0,0,0,1.8-3.42,1.75,1.75,0,0,0,0-.24l0,0c-.27.34-.36.72-.79,1a22.41,22.41,0,0,0-3.31,2.26c.36-.76.81-1.53,1.27-2.33C47.38,33.62,48.6,31.89,48.69,29.8Z" transform="translate(-1.35 -1.28)"/><path class="e" d="M21.81,34a14.42,14.42,0,0,0,.67-3.85,14.59,14.59,0,0,1,1.61,4.44,2,2,0,0,1-1.15,1.8,3.33,3.33,0,0,0-1.42,4.39A7,7,0,0,1,22,43l0,.31a.1.1,0,0,0,.07.08.09.09,0,0,0,.1,0l.31-.43a6.16,6.16,0,0,1,1.42-1.54,2.84,2.84,0,0,0,1.42-2A6,6,0,0,0,25,36.69a4.77,4.77,0,0,1-.13-1.53c.07-2.12-1-4-1.9-5.8-1.24-2.58-2.36-5-1.19-6.85a20.36,20.36,0,0,0,1.17,1.84,1.22,1.22,0,0,0-.45.74,1.28,1.28,0,0,0,1,1.48,1.24,1.24,0,0,0,1.47-1,1.28,1.28,0,0,0-1-1.48,1.25,1.25,0,0,0-.64,0c-.24-.48-.52-.94-.74-1.43a3.41,3.41,0,0,1-.4-1.34c0-.86,1.17-1.63,1.87-1.91a1,1,0,0,0-.42-.87,2.09,2.09,0,0,0-.65.26c-4.36,2.24-7,7.39-6.61,10.2a1.79,1.79,0,0,0,.05.28h.06c.3-.64,2-1.86,2.24-2.72.57-2.33.87-4.71,2.2-4.67a11,11,0,0,0-.35,1.23,4.56,4.56,0,0,0,.17,2.5c.57,1.8,1.8,3.26.5,5-.74,1-2.17,1.2-2.61,2.48-.75,2.17-1.24,3.21-2,4C18.73,37.88,20.93,36.55,21.81,34Z" transform="translate(-1.35 -1.28)"/><path class="f" d="M23.79,17.2a6,6,0,0,1,1.34,1.52,2.68,2.68,0,0,0,1.8,1.55,5.2,5.2,0,0,0,2.5-.17,4.14,4.14,0,0,1,1.43,0c2,.22,3.73-.73,5.49-1.49s4.39-2.08,6.36-.75a4,4,0,0,1-.39.36c-.39.29-.58.22-1,0a1.25,1.25,0,0,0-1.64.56,1.2,1.2,0,1,0,2.22.89,2.45,2.45,0,0,1,.25-.73.85.85,0,0,1,.83-.25,1.08,1.08,0,0,1,.66.36,3.73,3.73,0,0,1,.55,2.41,2.7,2.7,0,0,0,.13,1.12c.06.14.28.57.47.56s.44-1.19.44-1.43a.73.73,0,0,1-.24-.39,10,10,0,0,0-.9-3.09A4,4,0,0,0,41,16.48a8,8,0,0,0-2.9.67c-.61.22-1.2.49-1.79.76-1.3.58-3.2,1.06-4-.57a1.76,1.76,0,0,1-.06-1.48,1.71,1.71,0,0,1,2-1.07,1.33,1.33,0,0,1,.7.56.93.93,0,0,1-.54,1.39.67.67,0,0,0,.25-.29.6.6,0,0,0,0-.5.69.69,0,0,0-.39-.34,1,1,0,0,0-.65,0,.8.8,0,0,0-.45.43.87.87,0,0,0,0,.75,1.09,1.09,0,0,0,.61.51,1.58,1.58,0,0,0,1.92-.89,1.5,1.5,0,0,0-.1-1.34,2.15,2.15,0,0,0-2.88-.73A2.46,2.46,0,0,0,31.6,17.6a2.88,2.88,0,0,0,1.57,1.34l.31.1a6.93,6.93,0,0,1-2,.35,1.85,1.85,0,0,1-1.59-1.26,3,3,0,0,0-4-1.71,6.08,6.08,0,0,1-2.13.28h-.28a.09.09,0,0,0-.08.06.1.1,0,0,0,0,.1Z" transform="translate(-1.35 -1.28)"/><path class="g" d="M10.06,35l-1.31.09-.07-1a.62.62,0,0,0-.21-.43A.63.63,0,0,0,8,33.52l-.88.06a.63.63,0,0,0-.58.67l.12,1.66,3.43-.24Zm-2.9-.69a.12.12,0,0,1,.11-.14l.68,0a.1.1,0,0,1,.09,0,.13.13,0,0,1,0,.09l.06.89-.93.07Z" transform="translate(-1.35 -1.28)"/><polygon class="h" points="8.74 29.13 8.14 29.09 8.05 30.55 7.19 30.5 7.28 29.17 6.68 29.13 6.59 30.46 5.8 30.41 5.9 28.95 5.3 28.91 5.17 31 8.61 31.22 8.74 29.13"/><polygon class="i" points="8.86 28.15 8.99 27.55 6.84 27.1 9.24 26.32 9.36 25.75 6.08 25.06 6 25.04 5.87 25.65 8.02 26.1 5.61 26.88 5.49 27.45 8.78 28.14 8.86 28.15"/><polygon class="j" points="9.89 24.13 7.83 23.35 10.28 22.96 10.33 22.95 10.54 22.41 7.32 21.19 7.1 21.77 9.16 22.55 6.7 22.93 6.66 22.94 6.45 23.49 9.67 24.71 9.89 24.13"/><polygon class="k" points="11.3 20.89 11.61 20.33 10.41 19.67 9.1 17.75 8.77 18.35 9.62 19.6 8.11 19.55 7.78 20.15 10.1 20.23 11.3 20.89"/><path class="l" d="M14.83,18.81A.6.6,0,0,0,14.7,18l-.63-.47a.47.47,0,0,0-.45-.07.51.51,0,0,0-.2-.37l-.53-.4a.59.59,0,0,0-.45-.11.61.61,0,0,0-.4.24l-1,1.31,2.77,2.05Zm-1.8,0,.52-.7a.13.13,0,0,1,.09-.05.13.13,0,0,1,.09,0l.51.38a.11.11,0,0,1,0,.18l-.52.7Zm-.43-1.53.44.32a.13.13,0,0,1,.05.08.11.11,0,0,1,0,.08l-.51.69-.63-.47.5-.68A.12.12,0,0,1,12.6,17.23Z" transform="translate(-1.35 -1.28)"/><path class="m" d="M16.1,17.3l-.37-.73.76-.77.74.36.46-.46-3.28-1.59-.39.4,1.62,3.26Zm-.16-1.78-.49.5-.53-1Z" transform="translate(-1.35 -1.28)"/><path class="n" d="M17.85,14.76a.61.61,0,0,0,.87.12l.84-.64a.63.63,0,0,0,.12-.87l-.38-.51-.5.38.32.43a.12.12,0,0,1,0,.09.13.13,0,0,1-.05.09l-.62.47a.12.12,0,0,1-.18,0l-1.21-1.59a.12.12,0,0,1,0-.18l.62-.47a.12.12,0,0,1,.18,0l.31.41.5-.38-.37-.49a.62.62,0,0,0-.87-.12l-.84.64a.61.61,0,0,0-.12.87Z" transform="translate(-1.35 -1.28)"/><polygon class="o" points="20.12 11.73 19.44 10.5 21.05 11.21 21.73 10.83 19.71 9.96 20 7.85 19.33 8.23 19.11 9.92 18.44 8.72 17.89 9.03 19.57 12.04 20.12 11.73"/><polygon class="p" points="23.62 7.06 24.47 9.78 25.08 9.59 24.22 6.87 25.11 6.59 24.94 6.02 22.63 6.75 22.55 6.77 22.73 7.34 23.62 7.06"/><path class="q" d="M28.57,10.31h.11l1.09-.18a.62.62,0,0,0,.51-.72l-.36-2.16a.62.62,0,0,0-.72-.51l-1.09.18a.61.61,0,0,0-.4.25.62.62,0,0,0-.1.46L28,9.79A.62.62,0,0,0,28.57,10.31Zm-.33-2.69a.12.12,0,0,1,.11-.14l.82-.14h0a.12.12,0,0,1,.12.1l.33,2a.13.13,0,0,1,0,.09.12.12,0,0,1-.08,0l-.82.14a.12.12,0,0,1-.15-.1Z" transform="translate(-1.35 -1.28)"/><polygon class="r" points="30.69 8.64 30.65 6.44 31.95 8.62 32.53 8.61 32.47 5.16 31.85 5.17 31.89 7.38 30.6 5.19 30.01 5.2 30.07 8.65 30.69 8.64"/><polygon class="s" points="34.62 5.42 34.63 5.34 34 5.27 33.67 8.62 33.66 8.7 34.29 8.76 34.62 5.42"/><path class="t" d="M37.36,10.29l1,.22h.13a.62.62,0,0,0,.61-.5l.13-.62-.62-.13-.11.52a.13.13,0,0,1-.15.09l-.76-.16a.13.13,0,0,1-.08-.06.12.12,0,0,1,0-.09l.41-2A.12.12,0,0,1,38,7.55a.14.14,0,0,1,.1,0l.76.16a.13.13,0,0,1,.08.06.12.12,0,0,1,0,.09l-.11.5.62.13.13-.6a.63.63,0,0,0-.48-.74l-1-.22A.61.61,0,0,0,37.6,7a.62.62,0,0,0-.27.4l-.45,2.15A.62.62,0,0,0,37.36,10.29Z" transform="translate(-1.35 -1.28)"/><path class="u" d="M40.51,11.12l.94.34a.64.64,0,0,0,.22,0,.61.61,0,0,0,.26-.06.62.62,0,0,0,.32-.35l.23-.64c.07-.19.07-.48-.33-.77l-.27-.19-.48-.35c-.1-.07-.11-.12-.09-.18l.14-.39a.13.13,0,0,1,.16-.08l.66.24a.13.13,0,0,1,.08.16l-.15.41.6.22L43,9a.62.62,0,0,0-.37-.8l-.91-.33a.62.62,0,0,0-.8.37l-.21.58c-.1.28,0,.53.33.77l.42.3.32.24c.12.09.11.12.09.17l-.17.45a.12.12,0,0,1-.07.07.14.14,0,0,1-.1,0l-.68-.25a.13.13,0,0,1-.07-.07.13.13,0,0,1,0-.1l.14-.39-.6-.22-.18.48A.62.62,0,0,0,40.51,11.12Z" transform="translate(-1.35 -1.28)"/><path class="v" d="M45.33,12.5l.92.58-.19.8.55.35.84-3.54-.48-.3-2.83,2.29.55.35Zm.48-.39.88-.74-.29,1.11Z" transform="translate(-1.35 -1.28)"/><polygon class="w" points="46.33 13.83 47.76 12.17 47.28 14.65 47.72 15.03 49.97 12.43 49.5 12.02 48.06 13.69 48.54 11.25 48.55 11.2 48.11 10.82 45.86 13.42 46.33 13.83"/><path class="x" d="M49.84,17.09l1.06,1.23a.63.63,0,0,0,.88.07l1.67-1.43a.63.63,0,0,0,.07-.88l-1.06-1.23L49.9,17Zm2.57-1.38.56.65a.12.12,0,0,1,0,.18l-1.52,1.31a.13.13,0,0,1-.18,0l-.56-.65Z" transform="translate(-1.35 -1.28)"/><path class="y" d="M53,21a.62.62,0,0,0,.05.47l.48.88a.62.62,0,0,0,.37.3l.17,0a.62.62,0,0,0,.3-.08l.6-.33a.64.64,0,0,0,.26-.8l-.08-.36-.12-.54c0-.12,0-.16.05-.19l.37-.2a.14.14,0,0,1,.1,0,.12.12,0,0,1,.07.06l.34.62a.13.13,0,0,1,0,.1.13.13,0,0,1-.06.08l-.38.21.3.56.47-.26a.62.62,0,0,0,.25-.85l-.47-.85a.62.62,0,0,0-.85-.25l-.54.3c-.26.14-.35.41-.26.8l.1.44.1.45c0,.15,0,.17,0,.19L54.2,22a.14.14,0,0,1-.1,0A.13.13,0,0,1,54,22l-.35-.64a.13.13,0,0,1,0-.1.13.13,0,0,1,.06-.08l.37-.2-.3-.56-.45.25A.62.62,0,0,0,53,21Z" transform="translate(-1.35 -1.28)"/><path class="z" d="M54.52,23.92a.61.61,0,0,0,0,.48l.38,1a.62.62,0,0,0,.33.35.63.63,0,0,0,.48,0L57.75,25a.63.63,0,0,0,.37-.8l-.38-1a.62.62,0,0,0-.33-.35.63.63,0,0,0-.48,0l-2.06.77A.62.62,0,0,0,54.52,23.92Zm.59.4a.12.12,0,0,1,.07-.16l1.87-.7h0a.12.12,0,0,1,.12.09l.29.77a.12.12,0,0,1,0,.1.13.13,0,0,1-.07.06l-1.87.7a.12.12,0,0,1-.16-.07Z" transform="translate(-1.35 -1.28)"/><path class="aa" d="M55.74,28.62a.63.63,0,0,0,.61.49h.13l2.15-.46a.62.62,0,0,0,.48-.74l-.34-1.59L55.4,27Zm2.58-1.56.18.83a.13.13,0,0,1,0,.1.12.12,0,0,1-.08.05l-2,.42a.12.12,0,0,1-.15-.1l-.18-.83Z" transform="translate(-1.35 -1.28)"/><path class="ab" d="M56,30.61l.79.2.07,1.08-.76.32,0,.65,3.3-1.38.06,0,0-.56L56,30Zm1.4.36,1.12.27-1.07.42Z" transform="translate(-1.35 -1.28)"/><path class="ac" d="M59,33.78l-.62,0c-.3,0-.51.15-.65.53l-.16.44-.15.41c-.05.14-.08.14-.14.14l-.48,0a.12.12,0,0,1-.12-.14l.05-.73a.13.13,0,0,1,0-.09.11.11,0,0,1,.09,0l.42,0,0-.63-.52,0a.65.65,0,0,0-.45.15.62.62,0,0,0-.21.43l-.07,1a.62.62,0,0,0,.58.67l.68,0c.3,0,.52-.16.65-.53l.11-.31.2-.56c0-.12.09-.14.15-.13l.42,0a.13.13,0,0,1,.12.13l-.05.7a.13.13,0,0,1,0,.09.12.12,0,0,1-.09,0l-.44,0,0,.63.53,0h0a.63.63,0,0,0,.62-.58l.07-1a.62.62,0,0,0-.58-.67Z" transform="translate(-1.35 -1.28)"/><path class="ad" d="M16.45,51.2l.46.44.42-.44a.62.62,0,0,0,0-.88l-.77-.73a.64.64,0,0,0-.44-.17.62.62,0,0,0-.44.2l-1.52,1.59a.62.62,0,0,0-.17.44.61.61,0,0,0,.19.44l.77.73a.63.63,0,0,0,.88,0l.44-.46-.46-.44-.37.39a.12.12,0,0,1-.09,0h0a.13.13,0,0,1-.09,0l-.56-.54a.13.13,0,0,1,0-.09.12.12,0,0,1,0-.09l1.38-1.45a.12.12,0,0,1,.08,0h0a.13.13,0,0,1,.09,0l.56.54a.13.13,0,0,1,0,.09.12.12,0,0,1,0,.09Z" transform="translate(-1.35 -1.28)"/><polygon class="ae" points="17.72 50.48 17.22 50.09 15.17 52.76 15.12 52.82 15.62 53.21 17.67 50.54 17.72 50.48"/><polygon class="af" points="18.39 51 18.07 51.51 18.87 52 17.38 54.42 17.92 54.75 19.41 52.33 20.21 52.82 20.52 52.31 18.39 51"/><polygon class="ag" points="21.63 54.32 21.55 52.81 20.92 52.53 21.04 54.85 20.48 56.11 21.06 56.37 21.62 55.11 23.43 53.65 22.8 53.37 21.63 54.32"/><path class="ah" d="M28.48,56l-1.08-.24a.61.61,0,0,0-.74.48l-.48,2.14a.62.62,0,0,0,.47.74l1.08.24h.14a.63.63,0,0,0,.61-.49L29,56.7a.62.62,0,0,0-.47-.74Zm-.17.7-.43,1.95a.12.12,0,0,1-.15.09l-.81-.18a.13.13,0,0,1-.08-.05.12.12,0,0,1,0-.09l.43-1.95a.12.12,0,0,1,.05-.08l.07,0h0l.81.18A.12.12,0,0,1,28.32,56.65Z" transform="translate(-1.35 -1.28)"/><polygon class="ai" points="28.75 54.95 28.47 58.3 28.46 58.38 29.09 58.43 29.22 56.98 30.57 57.1 30.62 56.5 29.27 56.38 29.34 55.6 30.73 55.72 30.82 55.73 30.87 55.13 28.84 54.95 28.75 54.95"/><path class="aj" d="M36,56.21l-.56.06-.78,3.56.65-.07.17-.8,1.08-.12.35.74.64-.07L36,56.26Zm.3,2.06-.69.08.22-1.13Z" transform="translate(-1.35 -1.28)"/><path class="ak" d="M40,55.37l-.61.16.68,2.63a.12.12,0,0,1-.09.15l-.74.19a.13.13,0,0,1-.15-.09l-.68-2.63-.61.16.71,2.73a.62.62,0,0,0,.6.47l.16,0,1-.26a.63.63,0,0,0,.45-.76Z" transform="translate(-1.35 -1.28)"/><path class="al" d="M43.81,56.19c-.11-.28-.37-.39-.76-.35l-.34,0-.58.07c-.12,0-.16,0-.18-.07l-.16-.39a.13.13,0,0,1,0-.1.12.12,0,0,1,.07-.07l.65-.27a.12.12,0,0,1,.1,0,.13.13,0,0,1,.07.07l.17.4.59-.24-.2-.5a.62.62,0,0,0-.82-.34l-.9.37a.62.62,0,0,0-.34.82l.24.57c.11.28.37.39.77.35l.46-.05.45-.05c.15,0,.16,0,.19.07l.18.45a.13.13,0,0,1-.07.17l-.67.28a.13.13,0,0,1-.1,0,.13.13,0,0,1-.07-.07L42.38,57l-.59.24.2.48a.62.62,0,0,0,.58.39.63.63,0,0,0,.24,0l.93-.38a.62.62,0,0,0,.34-.82Z" transform="translate(-1.35 -1.28)"/><polygon class="am" points="44.74 51.91 44.44 51.39 42.27 52.64 42.57 53.16 43.38 52.7 44.8 55.16 45.35 54.84 43.93 52.38 44.74 51.91"/><rect class="an" x="47.41" y="51.67" width="0.63" height="3.44" transform="translate(-23.57 36.76) rotate(-35.83)"/><polygon class="ao" points="47.87 48.65 49.35 50.28 46.94 49.49 46.5 49.88 48.82 52.44 49.28 52.02 47.8 50.39 50.21 51.17 50.64 50.78 48.33 48.23 47.87 48.65"/><path class="b" d="M33.06,3.53A29.45,29.45,0,1,0,62.51,33,29.49,29.49,0,0,0,33.06,3.53Zm0,58.24A28.78,28.78,0,1,1,61.85,33,28.82,28.82,0,0,1,33.06,61.77Z" transform="translate(-1.35 -1.28)"/><path class="ap" d="M57.64,39.85q.29.63.57,1.29.62-.37,1.24-.79-.33-.67-.66-1.31Q58.21,39.46,57.64,39.85Z" transform="translate(-1.35 -1.28)"/><path class="aq" d="M56.68,42.63q.22.66.43,1.35.65-.3,1.31-.65A13.47,13.47,0,0,0,57.94,42,12.78,12.78,0,0,1,56.68,42.63Z" transform="translate(-1.35 -1.28)"/><path class="ar" d="M55.42,45.28q.16.68.29,1.4l1.36-.5c-.1-.48-.18-.94-.31-1.41C56.33,45,55.86,45.12,55.42,45.28Z" transform="translate(-1.35 -1.28)"/><path class="as" d="M53.87,47.78q.08.7.14,1.43l1.4-.35q-.06-.73-.15-1.43Z" transform="translate(-1.35 -1.28)"/><path class="at" d="M55.85,38.35q-.51.38-1,.72.26.55.5,1.14l1.1-.7Q56.15,38.92,55.85,38.35Z" transform="translate(-1.35 -1.28)"/><path class="au" d="M54,41.54q.2.58.38,1.2l1.16-.57a11.94,11.94,0,0,0-.43-1.22A11.34,11.34,0,0,1,54,41.54Z" transform="translate(-1.35 -1.28)"/><path class="av" d="M54.05,43.44c-.38.17-.8.31-1.19.45q.14.61.26,1.24l1.21-.44C54.24,44.27,54.17,43.86,54.05,43.44Z" transform="translate(-1.35 -1.28)"/><path class="aw" d="M51.48,46.11q.07.62.13,1.27l1.24-.31q-.05-.65-.13-1.27Z" transform="translate(-1.35 -1.28)"/><path class="ap" d="M8.72,39.85q-.57-.39-1.15-.81-.34.64-.66,1.31.63.41,1.24.79Q8.42,40.47,8.72,39.85Z" transform="translate(-1.35 -1.28)"/><path class="aq" d="M8.42,42a13.45,13.45,0,0,0-.49,1.37q.66.34,1.31.65.21-.69.43-1.35A12.8,12.8,0,0,1,8.42,42Z" transform="translate(-1.35 -1.28)"/><path class="ar" d="M9.29,46.18l1.36.5q.13-.71.29-1.4c-.44-.16-.91-.32-1.34-.51C9.46,45.24,9.38,45.7,9.29,46.18Z" transform="translate(-1.35 -1.28)"/><path class="as" d="M11,48.86l1.4.35q.06-.73.14-1.43l-1.39-.35Q11,48.13,11,48.86Z" transform="translate(-1.35 -1.28)"/><path class="at" d="M10.51,38.35q-.3.57-.59,1.16l1.1.7q.25-.59.5-1.14Q11,38.73,10.51,38.35Z" transform="translate(-1.35 -1.28)"/><path class="au" d="M12.37,41.54a11.35,11.35,0,0,1-1.11-.59,12,12,0,0,0-.43,1.22l1.16.57Q12.18,42.12,12.37,41.54Z" transform="translate(-1.35 -1.28)"/><path class="av" d="M12,44.69l1.21.44q.12-.63.26-1.24c-.39-.14-.81-.28-1.19-.45C12.19,43.86,12.12,44.27,12,44.69Z" transform="translate(-1.35 -1.28)"/><path class="aw" d="M14.87,46.11l-1.23-.31q-.08.62-.13,1.27l1.24.31Q14.8,46.73,14.87,46.11Z" transform="translate(-1.35 -1.28)"/><path class="ax" d="M33.06,1.28A31.71,31.71,0,1,0,64.77,33,31.74,31.74,0,0,0,33.06,1.28Zm0,62.41A30.71,30.71,0,1,1,63.77,33,30.74,30.74,0,0,1,33.06,63.69Z" transform="translate(-1.35 -1.28)"/></svg>